<svg width="266.1875" height="266" title="D3-Celestial" version="1.1" encoding="UTF-8" xmlns="http://www.w3.org/2000/svg" xmlns:xlink="http://www.w3.org/1999/xlink" xmlns:sodipodi="http://sodipodi.sourceforge.net/DTD/sodipodi-0.dtd" xmlns:inkscape="http://www.inkscape.org/namespaces/inkscape" viewBox=" 0 0 266.1875 266"><defs><style type="text/css"> .background {fill:#000000; } .milkyWay {} .milkyWayBg {} .gridLines {} .constBoundaries {} .planesequatorial {} .planesecliptic {} .planesgalactic {} .planessupergalactic {} .constLines {} .mapBorder {fill:none; stroke:#000000; stroke-width:1.5; stroke-opacity:1; stroke-dasharray:none; } .stars {fill:#ffffff; fill-opacity:1; stroke:none; stroke-width:undefined; stroke-opacity:1; stroke-dasharray:none; font:null; } .dsos {} .planets {} .gridvaluesLon {} .gridvaluesLat {} .constNames {} .starDesignations {} .starNames {} .dsoNames {} .planetNames {} .horizon {} .daylight {} .constLines1 {fill:none; stroke:#cccccc; stroke-width:1; stroke-opacity:0.6; stroke-dasharray:none; } .constLines2 {fill:none; stroke:#cccccc; stroke-width:1; stroke-opacity:0.6; stroke-dasharray:none; } .constLines3 {fill:none; stroke:#cccccc; stroke-width:1; stroke-opacity:0.6; stroke-dasharray:none; } .stars-3 {fill:#9bbcff; } .stars-2 {fill:#a9c5ff; } .stars-1 {fill:#bfd3ff; } .stars0 {fill:#d7e2ff; } .stars1 {fill:#dce5ff; } .stars2 {fill:#e3e9ff; } .stars3 {fill:#ebeeff; } .stars4 {fill:#f6f4ff; } .stars5 {fill:#fef9ff; } .stars6 {fill:#fff5f5; } .stars7 {fill:#fff0e9; } .stars8 {fill:#ffebdc; } .stars9 {fill:#ffe8d5; } .stars10 {fill:#ffe1c6; } .stars11 {fill:#ffdbba; } .stars12 {fill:#ffd5ad; } .stars13 {fill:#ffd1a3; } .stars14 {fill:#ffc994; } .stars15 {fill:#ffc489; } .stars16 {fill:#ffbb78; } .stars17 {fill:#ffb872; } .stars18 {fill:#ffb165; } .stars19 {fill:#ffa957; } .stars20 {fill:#ffa34b; } .stars21 {fill:#ff9d3f; } .stars22 {fill:#ff9631; } .stars23 {fill:#ff8e21; } .stars24 {fill:#ff870a; } .stars25 {fill:#ff8300; } .stars26 {fill:#ff7c00; } .stars27 {fill:#ff7500; } .stars28 {fill:#ff7000; } .stars29 {fill:#ff6900; } .stars30 {fill:#ff6300; } .stars31 {fill:#ff5b00; } .stars32 {fill:#ff5600; } </style></defs><g id="background" inkscape:groupmode="layer" inkscape:label="background"><path class="background" d="M133.09375,257.99182685119536L146.15895358177212,257.3071085455938L159.0810120590326,255.26045554583197L171.71834865499017,251.87429141046488L183.9325060653668,247.18571566236L195.58966342559754,241.24609731856117L206.5621024802268,234.12051208058801L216.72960689084158,225.88702935143237L225.98077935143203,216.63585689084192L234.21426208058773,206.4683524802272L241.33984731856089,195.49591342559796L247.27946566235983,183.8387560653672L251.9680414104647,171.62459865499062L255.35420554583186,158.98726205903307L257.4008585455938,146.06520358177255L258.08557685119536,133.0000000000005L257.40085854559385,119.93479641822849L255.3542055458321,107.01273794096795L251.96804141046505,94.37540134501037L247.27946566236022,82.16124393463377L241.33984731856143,70.50408657440295L234.21426208058836,59.53164751977364L225.98077935143274,49.36414310915883L216.72960689084238,40.112970648568336L206.56210248022765,31.87948791941261L195.58966342559845,24.753902681439385L183.9325060653677,18.814284337640416L171.71834865499113,14.125708589535435L159.08101205903364,10.73954445416824L146.15895358177306,8.692891454406293L133.09375,8.008173148804673L120.02854641822906,8.692891454406066L107.10648794096852,10.739544454167799L94.4691513450109,14.125708589534767L82.25499393463429,18.81428433763952L70.59783657440343,24.753902681438305L59.6253975197741,31.879487919411346L49.457893109159215,40.112970648566915L40.20672064856862,49.36414310915731L31.973237919412853,59.53164751977202L24.847652681439556,70.50408657440127L18.908034337640544,82.16124393463204L14.21945858953552,94.37540134500863L10.833294454168282,107.01273794096622L8.786641454406308,119.93479641822677L8.101923148804673,132.99999999999886L8.786641454406066,146.06520358177096L10.833294454167813,158.98726205903154L14.21945858953481,171.62459865498917L18.908034337639606,183.83875606536589L24.847652681438404,195.49591342559674L31.973237919411503,206.46835248022612L40.2067206485671,216.63585689084098L49.45789310915751,225.88702935143155L59.625397519772235,234.1205120805873L70.59783657440147,241.2460973185606L82.25499393463224,247.18571566235954L94.46915134500881,251.87429141046454L107.10648794096643,255.26045554583177L120.02854641822694,257.3071085455937L133.09375,257.99182685119536Z"/></g><g id="milkyWay" inkscape:groupmode="layer" inkscape:label="milkyWay"/><g id="milkyWayBg" inkscape:groupmode="layer" inkscape:label="milkyWayBg"/><g id="gridLines" inkscape:groupmode="layer" inkscape:label="gridLines"/><g id="constBoundaries" inkscape:groupmode="layer" inkscape:label="constBoundaries"/><g id="planesequatorial" inkscape:groupmode="layer" inkscape:label="planesequatorial"/><g id="planesecliptic" inkscape:groupmode="layer" inkscape:label="planesecliptic"/><g id="planesgalactic" inkscape:groupmode="layer" inkscape:label="planesgalactic"/><g id="planessupergalactic" inkscape:groupmode="layer" inkscape:label="planessupergalactic"/><g id="constLines" inkscape:groupmode="layer" inkscape:label="constLines"><path class="constLines1" d="M95.8883282448449,67.15161009907933L110.24959658409382,78.36795300197846L119.6081221955279,85.80787296695041L130.173779542793,88.59961877991121M112.4799542810596,96.85869871229806L116.10521346278581,95.65563197729949L119.71177646715311,88.12827644280353L119.6081221955279,85.80787296695041L120.7494171029107,81.58205816548747L139.69463941825668,67.76823816422898L150.7814643083182,68.74617848762792M139.69463941825668,67.76823816422898L138.92657579227802,66.25450111170645L139.5759286883045,63.21411784458637M110.24959658409382,78.36795300197846L115.01401231144474,74.32900725227432L117.6731538439831,70.66556672360713L113.35317987207752,61.510521377045606L106.02383238322734,58.87919899416727M138.92657579227802,66.25450111170645L137.13255779077573,63.30962608213778"/><path class="constLines3"/><path class="constLines3"/><path class="constLines2" d="M204.313711919612,149.00984655006053L202.65910581054095,148.07707320332597L189.13652809949923,142.06039699212454L176.68528065693468,133.5091928813902L170.72043901558283,135.19015969030315L168.02057802263332,133.03147180372213L165.55059684644556,133.18438649460373L158.81571440561837,144.81035072951323L149.1483983574466,147.2089600840072L151.54654612788815,165.66585379701422M189.13652809949923,142.06039699212454L175.4678596712604,155.00454798754868M176.68528065693468,133.5091928813902L172.26595105674,145.3059599566472M168.02057802263332,133.03147180372213L169.35539231315767,130.82913721217773M146.69689321307808,163.94550769234206L149.1483983574466,147.2089600840072L139.869016184487,160.39369326159286"/><path class="constLines1" d="M224.67746954468885,113.81296105602263L223.6151086314522,117.0484320649015L222.56616176854953,121.53207239280712L217.6671298648248,134.44312616582332L223.96643050009277,131.19130057249916L232.61030387073066,127.18459621188063L236.2833721646727,106.45926842839727L223.6151086314522,117.0484320649015L232.61030387073066,127.18459621188063L238.43867888414263,142.3885427257"/><path class="constLines3"/><path class="constLines1" d="M74.75658743766144,88.50345304275004L87.81174228907622,95.69610172463169L91.55886385605626,100.0894554951521L91.64346929053008,102.47404509017082"/><path class="constLines1" d="M44.69456020825746,44.76278343705056L52.883181857623455,48.439864702084535L48.69098057762535,56.95983312168241L42.19355695048249,71.27546282795736L30.919602624807155,76.66729221262834L33.598899413656056,57.444750185758494L44.69456020825746,44.76278343705056L60.17281610294749,31.576729655723213L52.883181857623455,48.439864702084535L52.74955834932574,53.35019663656989L49.3273518183358,57.62657604111784"/><path class="constLines1"/><path class="constLines3" d="M60.42449887458045,211.41182509542563L54.88067472286069,207.51920047632382L49.61214330330931,200.0801192026867L42.736344695215706,199.35345927339546"/><path class="constLines2" d="M67.02142868271113,39.39930530556774L76.61242669946549,30.289808837599296L87.52588370233809,24.52253791024937L101.88916994912805,23.596983486039264L93.66116056736792,30.145363588951L89.77462252323386,38.356894445006176M87.52588370233809,24.52253791024937L88.18982650926333,16.35269212391887"/><path class="constLines2"/><path class="constLines2"/><path class="constLines1"/><path class="constLines2"/><path class="constLines2" d="M213.90897616379283,154.73156907650977L212.15925448080938,158.54764852365045L208.58683868865015,163.4608106482857L200.00497955008223,175.19059909925605L197.42599562340726,177.6307952175414L187.65874675280654,169.28093834400525L182.10389023326718,158.8533201184232L184.4722856923008,159.82495877585333L190.72071931638803,160.44834607919228L196.27192453853496,161.46195519317797L213.90897616379283,154.73156907650977"/><path class="constLines1"/><path class="constLines1" d="M110.58057304249488,37.96230515889161L114.32406168884668,43.26596032425519L120.76131914274708,43.211468498042706L123.33769205041976,49.050164549321536L131.00712744227096,45.74377999249647"/><path class="constLines1"/><path class="constLines2" d="M173.01497829348506,34.40529738704734L171.77665568719988,36.78137173374054L165.1555543151319,37.535485941553745L163.49536184459228,43.58478247052366L157.74021485038818,47.0204635572466L158.01167306889678,45.33140817777384L153.84438807136246,45.57041798315939L146.04013021046634,35.81298035191955L135.28092300230628,22.15979205981408L155.79954710474982,28.1144280931544L165.1555543151319,37.535485941553745M155.79954710474982,28.1144280931544L146.04013021046634,35.81298035191955"/><path class="constLines1" d="M71.5190763448283,127.6751275804635L74.35350872547731,123.85300697608358L77.42347502671866,119.25370878536411L71.61090194371391,116.36150998136262L66.19730798376638,118.1541397017064L64.77579956813913,126.15962348249887L71.5190763448283,127.6751275804635L72.8247519215241,132.46096785265036L80.23524246511217,137.8131872534715L91.06256974621414,149.39928798961685L94.48125752405512,158.13779081274035L116.93253714796761,160.75399873892982L125.67043651072026,146.61015869072384L107.05585172144264,148.86206407966841L101.121316913595,145.82635023990824L91.06256974621414,149.39928798961685"/><path class="constLines3"/><path class="constLines3"/><path class="constLines3" d="M30.901842517204756,204.97062473417202L33.339179116605976,204.91733907143302L33.560158505276206,200.59001638345688L36.88926772435012,202.091622640082M33.339179116605976,204.91733907143302L41.53146985534414,217.8330226181282"/><path class="constLines3"/><path class="constLines3" d="M221.04213809600662,201.7780873716768L219.3447593753068,200.97931997750396L217.77443156611233,202.08249470609832L216.12863914158174,204.36792757303346L215.23289346609357,206.38464487357447L214.5102421102761,209.43285427839928L215.5486586717904,212.93007004212927L219.97759326141795,212.94557461600647"/><path class="constLines2"/><path class="constLines3"/><path class="constLines3"/><path class="constLines2"/><path class="constLines1" d="M189.19012226645498,83.93125386035753L195.39967015882115,76.90433319241438L197.67715900548006,65.77884345162727L202.1442481041217,55.66157106554509L197.45405233708775,44.74366656346635L197.43902161308506,41.31891255835876M188.6413923720877,59.38734552996401L197.67715900548006,65.77884345162727L208.7066363812012,72.23268872051887L221.0727210735407,82.38616680704442"/><path class="constLines3" d="M208.9490087712013,113.67909633346984L206.67753509400362,108.20887695835583L205.60213303332046,106.05146249451057L203.17233108436486,105.88232954595136L204.5457799128773,107.5519487147163L206.67753509400362,108.20887695835583"/><path class="constLines3" d="M71.08615568137998,219.6855341568641L72.52203317283673,226.1309566360224L77.20413870162528,241.0308759705599L82.52693148815595,245.42641373942166L76.86814345587285,243.81359277970014L77.20413870162528,241.0308759705599L71.55648620724585,232.28562964872216L72.52203317283673,226.1309566360224"/><path class="constLines2" d="M198.90728546146067,26.738363791713397L175.78442096613688,23.675418403460284L172.3615180907521,16.257367436186314L175.49464522516752,15.419725873327039M172.3615180907521,16.257367436186314L169.54536795351203,15.234231370550134M175.78442096613688,23.675418403460284L168.0897154336366,23.45522812733755"/><path class="constLines3" d="M194.8577113603301,124.36066501048742L194.7981869164533,116.52930638355542L196.2497334188167,116.2677639995199"/><path class="constLines1" d="M23.493674064098315,143.01344868557447L30.120801407119544,139.17929631325222L33.02043303696405,139.2759146540323L41.332973858576466,145.35252358967878L47.396956501158485,156.8917871596112L50.914131988763714,154.12152942968373L51.348557958348195,150.00445954720058L54.77746795618462,149.28698165421397L67.35673146875253,147.7872410313753L72.5684468846421,155.74649032412816L73.3645321543579,163.42259612507843L69.226672839927,172.1006852240168L62.88148119095128,169.64644287238315L58.21294801808111,169.9686585018387L54.82266521040579,173.2279317085091L45.37634087735344,188.5251124964229L51.23530044854439,193.4734020200858L52.66526148010726,192.6625782316596L62.19402778418818,194.6206716908937L68.70212205500874,200.20592979056113L75.41277985025047,203.4060951483455L79.251504375828,198.08155388397284L83.95937170489992,196.59196821909117L92.5317695396963,207.5194666682824L97.63908101312761,212.48188590097993L102.81028442291085,211.8620076002058L110.19771777983631,219.0288163608489"/><path class="constLines3" d="M68.5389812681646,181.1123090340672L77.40472257865152,185.55172422054045L90.46164472132924,179.28005833214092"/><path class="constLines1"/><path class="constLines3" d="M148.42184022479162,212.02706155966717L152.0668589663197,210.25975123920523L155.14502191431671,204.14070444747296L159.92323628642328,199.94154881700615L164.66567709007788,205.15649257447612L155.14502191431671,204.14070444747296M160.15649977335315,199.58692698249973L164.99398719423425,196.81551664693444L168.56676946600578,194.43428051348255L173.18975981591655,191.5672394357219"/><path class="constLines2" d="M242.26436020199887,72.13346857490225L241.05895558221118,73.70550549290485"/><path class="constLines3" d="M61.34815434769628,205.9331341627768L75.89630855323188,210.13678370391713L90.79543695053785,212.63106728666628L93.34305677908344,214.8275156977935L94.17199217508681,217.75594994429048L94.1691684076745,225.89257406214386L99.51705100428151,231.18299191968038"/><path class="constLines2"/><path class="constLines3" d="M130.29351057747732,243.4084285202118L106.58425499912052,245.23714849517864L106.89636093308516,235.46212858926273L109.9316233492956,235.24633816386896L113.30421301829209,233.10713674459916L108.30151512412195,225.45023978465602"/><path class="constLines3" d="M187.8746247730902,209.79337858691417L182.17468896075056,216.01436111948468L173.60995513307316,224.29144083851122L162.88451293484792,216.75348855317816L172.77434925332523,216.21438347796152L187.8746247730902,209.79337858691417"/><path class="constLines3" d="M158.13977518513406,53.871861477209876L156.99017166375538,56.79409250379585L158.49848292769656,60.3844021211446L161.32732504895787,61.82695427009702L159.93115755989587,66.9809599908553L156.6092451022181,65.54444416501357L158.49848292769656,60.3844021211446L159.123823356605,57.75016426810514L158.13977518513406,53.871861477209876M159.93115755989587,66.9809599908553L166.14679670537254,71.53263375931795L166.22797476410398,74.49459693690918"/><path class="constLines1"/><path class="constLines3"/><path class="constLines3" d="M12.058275652601608,164.19888986966458L12.829761242098371,163.36307487091347L15.64295079112867,164.13050125165412L21.10036188995997,169.26161885221217L25.64173798351115,164.89925483206198L31.313369051354016,176.1053686388027L24.15769558323852,174.6921789236265L21.2855415275438,179.30090402213082L18.404043521898075,176.77919398349152M24.084628975940106,158.57990562082495L25.64173798351115,164.89925483206198L22.367157275263736,159.33194401455202"/><path class="constLines2"/><path class="constLines3"/><path class="constLines3"/><path class="constLines2" d="M223.52787532117304,61.992839487972546L221.27387066385222,58.628105723801156L223.76015531276607,59.1881399496736L223.52787532117304,61.992839487972546L222.20408264661563,64.15985672915426L225.42407800523358,71.73350375242124L226.86891275637927,69.75017041288842L223.52787532117304,61.992839487972546"/><path class="constLines3" d="M101.27211603441128,253.87324100626773L104.21396712763796,252.73908623460213L102.97387474353161,249.54519982281226L95.74527477564179,246.97368470947754"/><path class="constLines3" d="M194.39926447858363,188.61512563847873L187.87567067701636,204.29463517659798L181.25883496092442,197.9582234458634L186.707963350657,184.91495618323503L191.8236378396545,185.7184708879343L194.39926447858363,188.61512563847873"/><path class="constLines2"/><path class="constLines3"/><path class="constLines3"/><path class="constLines3" d="M140.50097840735953,257.77215132761154L138.6506955831102,248.63617462065582L147.3712866219264,245.30614164095965L143.82321840891225,257.53045927507594"/><path class="constLines2"/><path class="constLines1" d="M14.204938431007747,94.42011841241805L17.20687947979053,90.17400069478308L15.789053603427519,89.84255588073884M9.610510909902075,113.63904848885502L10.446918482684168,117.05196377221412L18.622672847988994,120.11289377928533L28.534794690082308,113.49795450671441M25.97353645754012,129.67576422565782L27.338527526018055,128.30020961371574L28.640661978726612,122.26907675662353L29.302104439370765,119.70921328526516L29.498053547497463,116.00393661192219L28.534794690082308,113.49795450671441L29.238514712727564,107.04486110684266L27.642426701408212,103.07472995848437L26.26148383735523,102.4445307159549M22.144988738732337,149.31098147517037L18.248078210935873,137.86597169670765L15.965171868523683,133.61603913888337L18.622672847988994,120.11289377928533L16.746499832555088,112.502090770465L10.446918482684168,117.05196377221412L13.523470629762997,137.06989143616812L13.169359976431181,153.46276204864785M13.523470629762997,137.06989143616812L14.778398977954566,135.4957082074571L15.965171868523683,133.61603913888337"/><path class="constLines2" d="M181.01569617998197,223.7733002793438L166.79908871010701,234.64350119750586L171.84942336211276,236.7339104293757L187.12901244887024,238.1507229413591L191.05738384771686,240.27911479736855L188.04230809205552,244.1045894136617L187.68892835781196,245.43808642838908M182.10386518479444,247.9824568757007L171.08993110383116,248.11028057722928L162.74321979469593,244.5261173326388L166.79908871010701,234.64350119750586L161.18237350411158,231.64010863585702"/><path class="constLines1" d="M169.6929669559721,81.18070808802602L159.5179556527451,86.3113580305725L152.75435912417163,89.80855645175262L130.173779542793,88.59961877991121L128.12474679176427,109.63719038656026L153.77997739103674,109.44579469751974L160.76251916233653,114.01831822593059L162.82507620301743,116.07105746322557L174.84582674806344,123.16395772106638L184.1132461927215,117.09834659558754M153.77997739103674,109.44579469751974L152.75435912417163,89.80855645175262L158.10216097872035,94.9192700006333L159.4940496777638,96.456109970475L172.98476110433813,93.07657213385173L180.54172068452587,92.09333185578734"/><path class="constLines1" d="M60.81787155601164,77.96351204338868L57.74074133868736,78.0452030819608L59.309758080623,71.4121304234687L63.133397626248325,64.81870798655514L68.57764792845786,61.74370610603229L73.97945813883766,54.14574196624011L75.84289050996048,53.99559959006305L80.20515713947782,52.38506069061131L87.93655289647424,48.426723371999785L93.11945089197417,45.910432983960206L89.63282973377582,50.03071308119259L83.51580911353233,53.65394796720646L79.50670818204472,60.53209332708792L76.96011813405046,66.4296428726166L75.1620113261986,68.30267658488773L76.34800399213762,69.79519132983916L78.69248294914473,68.86427860286928L79.34650188361664,66.75180894299818L76.96011813405046,66.4296428726166M71.60787389519786,48.69020191045824L67.68835601822603,50.81642847651378L68.21920065774835,52.34013262138805L73.97945813883766,54.14574196624011M83.51580911353233,53.65394796720646L89.21569143190283,55.51721643616928L105.47226941519985,55.81428078271793"/><path class="constLines2" d="M125.06220126419535,196.8766679078013L114.16493361531289,203.6823158002705L106.66129403292985,199.2736643963628L108.02522388781439,207.5688041457687L116.24112665038169,215.62265313378512L114.16493361531289,203.6823158002705L130.34536364144807,201.7207023517863L125.06220126419535,196.8766679078013"/><path class="constLines3" d="M65.8410804400746,238.35670465927967L64.4127281311154,235.5666252427393L55.99925177710318,228.57709323569168"/><path class="constLines2" d="M106.75473994857025,94.89963140875491L108.45658372460207,86.59144531752499L105.2284638654351,90.74303207978375L106.75473994857025,94.89963140875491L107.05189664939485,100.35232690580936L99.0044711070945,108.92970160910826L93.19978471896047,118.50978463770497L86.62303327128785,128.58145077530816L89.79978876690578,127.92900083402871L94.43169623662041,124.32725444186082L98.68953677937412,123.34151249350798L104.96951645960273,121.17091289377038L109.06952530414713,120.72359264204621L114.47872594658563,121.2420567532504L133.3577967324077,122.41921787244439L140.79511948629298,124.31625727626233L145.37893884006914,123.14105909096037L148.31733151095636,124.67095148334369L149.56808834790309,127.91535772953222L145.83263840543765,131.0581414420333L140.01297602325815,130.25223456165233L138.33350166608392,127.6198393451955L140.79511948629298,124.31625727626233M149.56808834790309,127.91535772953222L154.64698482151772,127.06409570108379"/><path class="constLines2" d="M160.959204174613,174.92040220379303L154.6333213356011,178.57846259091298L154.69713699020343,182.96805209634937L155.7748723312658,183.51841691945702L162.87948272825267,183.0876925241854L170.27616695882736,184.57327598148433L177.80251489039745,185.29356832457324L177.7246930958857,181.95351400024086L170.27616695882736,184.57327598148433L160.959204174613,174.92040220379303"/><path class="constLines2"/><path class="constLines3"/><path class="constLines3" d="M85.96509679159105,233.9564062645884L81.17667078293758,230.19266843441775L86.73919377648005,231.48636184253195L93.42284476728037,234.6622752478604L85.96509679159105,233.9564062645884"/><path class="constLines3" d="M224.04929542744,100.35827375027445L221.57049927058918,99.75379136452328L217.60791406005472,98.56452832160866M223.98980528389623,101.35615663829864L221.57049927058918,99.75379136452328"/><path class="constLines1" d="M229.99469851036338,205.60484232776167L231.4868061243887,200.70853874689448L237.02704021293692,192.84176419033227L239.4485990650837,183.92919470673758L246.39749616711555,176.70548857330874M207.70269100706514,211.2448157472048L211.65714545702602,205.1544608019475L227.03905398739124,189.05648075068606L233.75345272622744,185.3027400965721L239.4485990650837,183.92919470673758M203.05306120400027,204.5620883452517L207.63314933895887,193.84764072192095L214.96454637560362,179.24462292555103L221.42118570006,177.90861820733028L224.93448673766417,177.94645223340612L227.1656115072983,179.90556547136705L231.848884467862,183.2548253831692L233.75345272622744,185.3027400965721L237.02704021293692,192.84176419033227L239.68149571672498,195.61504492964775L231.4868061243887,200.70853874689448L227.03905398739124,189.05648075068606L227.72111432687433,184.81256181135433L231.848884467862,183.2548253831692L232.48378814441713,174.26826182011138L231.4854882287952,172.63786346946935L230.35056531328507,168.41114024019294L229.702431271257,166.19080501676967L230.53796025458183,162.7291819866241M232.48378814441713,174.26826182011138L234.81201816108137,173.5429357653125L234.72309950696007,176.82433029975695L231.848884467862,183.2548253831692"/><path class="constLines1"/><path class="constLines3" d="M112.79760658006605,178.13504189487946L136.97598330983794,175.9701089356597L147.01602141943843,182.69469005059963L141.79085610089123,190.37202312483797"/><path class="constLines3" d="M247.0152548534823,149.7025509867509L244.23269993899146,142.42989600299487L244.74411566777871,151.0955280222521L246.32746475090306,162.663408173447L247.0152548534823,149.7025509867509"/><path class="constLines3"/><path class="constLines3" d="M256.4098217024736,153.39860876308921L255.98743828479866,150.6677187050998L251.99572425671676,139.04693877860353L241.59042726093253,124.77955671655386"/><path class="constLines3"/><path class="constLines1" d="M22.005343324300398,89.83466536333111L36.598080864517684,102.36080426123361L38.53961871435891,103.83153659130113L41.18693944802007,104.62177630895104L41.000739551152364,101.06659445336369L40.0339325883469,97.8732484296203L30.919602624807155,76.66729221262834M41.18693944802007,104.62177630895104L46.23910073000525,110.82172560815854L56.79412287378159,116.34513429821395L44.06758791339199,122.29891764093362M56.79412287378159,116.34513429821395L57.47721899185336,117.58303455460494L52.54577787643272,132.3038771497524"/><path class="constLines3" d="M218.44663014808958,221.35086755301916L216.04992083876988,219.40693389641638L211.18629170154705,223.77640517818014"/><path class="constLines3" d="M94.35071712780214,86.57136102165288L90.92518830381755,77.8996069270303L88.00633164546409,79.38205645843468L94.35071712780214,86.57136102165288"/><path class="constLines2"/><path class="constLines3" d="M155.17355429221044,223.18331636929753L142.95877224105135,219.2715348542951L126.61960881012077,225.4412667893464L129.20243217509778,227.86709462522577L133.10960639722504,228.72543204144756L150.74862478760656,229.09104597400025L155.17355429221044,223.18331636929753"/><path class="constLines1"/><path class="constLines2" d="M137.00344293634666,8.06933490634627L132.11137338124294,8.646567055485349"/><path class="constLines2"/><path class="constLines1"/><path class="constLines3"/><path class="constLines3" d="M229.4276471274368,93.07846026584338L223.85793043410712,87.99099880647137L216.95412868625056,90.40968808261093L212.52961169569457,84.59919971724821L208.1313301182568,85.28238019084782"/></g><g id="mapBorder" inkscape:groupmode="layer" inkscape:label="mapBorder"><path class="mapBorder" d="M133.0937526340058,8.008173148804701L133.0937521794426,8.00817319638297L133.09375217321755,8.008173243870658L133.0937521628557,8.008173291177371L133.09375214837672,8.008173338213098L133.0937521298082,8.008173384888266L133.09375210718545,8.008173431114045L133.09375208055155,8.008173476802398L133.0937520499572,8.008173521866425L133.09375201546067,8.008173566220279L133.09375197712757,8.008173609779561L133.0937519350309,8.008173652461366L133.09375188925077,8.008173694184435L133.0937518398744,8.008173734869331L133.09375178699565,8.008173774438632L133.0937517307153,8.008173812816992L133.09375167114044,8.008173849931367L133.09375160838445,8.008173885711102L133.0937515425668,8.008173920088112L133.0937514738128,8.008173952996927L133.0937514022533,8.00817398437492L133.09375132802455,8.00817401416235L133.09375125126783,8.008174042302528L133.09375117212923,8.008174068741894L133.09375109075944,8.0081740934301L133.09375100731333,8.008174116320134L133.09375092194972,8.00817413736847L133.09375083483113,8.008174156535034L133.0937507461234,8.008174173783317L133.0937506559954,8.008174189080464L133.09375056461863,8.008174202397413L133.0937504721671,8.008174213708799L133.0937503788168,8.008174222993077L133.09375028474534,8.008174230232555L133.09375019013189,8.008174235413463L133.0937500951565,8.008174238525982L133.09375,8.008174239564141L133.0937499048435,8.008174238525982L133.09374980986811,8.008174235413463L133.09374971525466,8.008174230232555L133.0937496211832,8.008174222993077L133.0937495278329,8.008174213708799L133.09374943538137,8.008174202397413L133.0937493440046,8.008174189080464L133.0937492538766,8.008174173783317L133.09374916516887,8.008174156535034L133.09374907805028,8.00817413736847L133.09374899268667,8.008174116320134L133.09374890924056,8.0081740934301L133.09374882787077,8.008174068741894L133.09374874873217,8.008174042302528L133.09374867197545,8.00817401416235L133.0937485977467,8.00817398437492L133.0937485261872,8.008173952996927L133.0937484574332,8.008173920088112L133.09374839161555,8.008173885711102L133.09374832885956,8.008173849931367L133.0937482692847,8.008173812816992L133.09374821300435,8.008173774438632L133.0937481601256,8.008173734869331L133.09374811074923,8.008173694184435L133.0937480649691,8.008173652461366L133.09374802287243,8.008173609779561L133.09374798453933,8.008173566220279L133.0937479500428,8.008173521866425L133.09374791944845,8.008173476802398L133.09374789281455,8.008173431114045L133.0937478701918,8.008173384888266L133.09374785162328,8.008173338213098L133.0937478371443,8.008173291177371L133.09374782678245,8.008173243870658L133.0937478205574,8.00817319638297L133.09387281030794,8.008173148926431ZM133.0937473659942,257.9918268511953L133.0937478205574,257.991826803617L133.09374782678245,257.99182675612934L133.0937478371443,257.9918267088226L133.09374785162328,257.9918266617869L133.0937478701918,257.99182661511173L133.09374789281455,257.9918265688859L133.09374791944845,257.9918265231976L133.0937479500428,257.9918264781336L133.09374798453933,257.9918264337797L133.09374802287243,257.99182639022047L133.0937480649691,257.9918263475386L133.09374811074923,257.99182630581555L133.0937481601256,257.99182626513067L133.09374821300435,257.99182622556134L133.0937482692847,257.991826187183L133.09374832885956,257.9918261500686L133.09374839161555,257.99182611428887L133.0937484574332,257.9918260799119L133.0937485261872,257.9918260470031L133.0937485977467,257.99182601562507L133.09374867197545,257.99182598583764L133.09374874873217,257.9918259576975L133.09374882787077,257.9918259312581L133.09374890924056,257.9918259065699L133.09374899268667,257.9918258836799L133.09374907805028,257.9918258626315L133.09374916516887,257.991825843465L133.0937492538766,257.99182582621665L133.0937493440046,257.9918258109195L133.09374943538137,257.9918257976026L133.0937495278329,257.9918257862912L133.0937496211832,257.9918257770069L133.09374971525466,257.99182576976744L133.09374980986811,257.99182576458657L133.0937499048435,257.99182576147405L133.09375,257.99182576043586L133.0937500951565,257.99182576147405L133.09375019013189,257.99182576458657L133.09375028474534,257.99182576976744L133.0937503788168,257.9918257770069L133.0937504721671,257.9918257862912L133.09375056461863,257.9918257976026L133.0937506559954,257.9918258109195L133.0937507461234,257.99182582621665L133.09375083483113,257.991825843465L133.09375092194972,257.9918258626315L133.09375100731333,257.9918258836799L133.09375109075944,257.9918259065699L133.09375117212923,257.9918259312581L133.09375125126783,257.9918259576975L133.09375132802455,257.99182598583764L133.0937514022533,257.99182601562507L133.0937514738128,257.9918260470031L133.0937515425668,257.9918260799119L133.09375160838445,257.99182611428887L133.09375167114044,257.9918261500686L133.0937517307153,257.991826187183L133.09375178699565,257.99182622556134L133.0937518398744,257.99182626513067L133.09375188925077,257.99182630581555L133.0937519350309,257.9918263475386L133.09375197712757,257.99182639022047L133.09375201546067,257.9918264337797L133.0937520499572,257.9918264781336L133.09375208055155,257.9918265231976L133.09375210718545,257.9918265688859L133.0937521298082,257.99182661511173L133.09375214837672,257.9918266617869L133.0937521628557,257.9918267088226L133.09375217321755,257.99182675612934L133.0937521794426,257.991826803617L133.09387717334576,257.991826851067L133.09387715729477,257.99182685113067L133.09400215017067,257.991826850941L146.15920434956777,257.3070821885807L159.08125869803803,255.260403120833L171.71858846297675,251.87421349185928L183.932736414948,247.18561310384038L195.58988179301525,241.24597124378008L206.5623064730018,234.12036387084717L216.72979427398639,225.88686063054874L225.9809480719377,216.6356695073568L234.214410289917,206.4681484871532L241.33997339290147,195.49569505792593L247.27956822041475,183.83852571557907L251.96811932858657,171.62435884684683L255.35425797033332,158.98701541992187L257.40088490210104,146.06495281392364L258.085576850941,132.99974785087892L257.4008321885807,119.93454565043274L255.35415312083313,107.01249130196251L251.96796349185948,94.37516153702379L247.2793631038406,82.16101358505252L241.3397212437804,70.50386820698526L234.2141138708475,59.53144352699864L225.9806106305491,49.363955726014055L216.7294195073572,40.11280192806271L206.56189848715366,31.879339710083315L195.5894450579264,24.75377660709883L183.93227571557958,18.814181779585482L171.7181088468474,14.125630671413646L159.0807654199224,10.739492029666806L146.15870281392426,8.692865097899045L133.09349784982933,8.008173149059019L120.02829565043328,8.692917811419207L107.10624130196307,10.739596879166783L94.46891153702433,14.12578650814035L82.25476358505303,18.814386896159178L70.59761820698577,24.75402875621934L59.6251935269991,31.87963612915216L49.457705726014424,40.113139369450536L40.20655192806298,49.36433049264248L31.973089710083556,59.53185151284602L24.847526607099013,70.50430494207328L18.907931779585596,82.16147428442017L14.219380671413703,94.3756411531524L10.833242029666849,107.01298458007741L8.786615097899045,119.93504718607568L8.101923149059019,133.00025214912046L8.786667811419207,146.0654543495667L10.833346879166783,158.987508698037L14.219536508140365,171.6248384629758L18.908136896159206,183.8389864149471L24.84777875621947,195.49613179301443L31.97338612915233,206.46855647300112L40.206889369450735,216.63604427398576L49.458080492642665,225.88719807193718L59.625601512846245,234.1206602899166L70.5980549420735,241.24622339290113L82.2552242844204,247.1858182204145L94.4693911531526,251.87436932858634L107.10673458007761,255.2605079703332L120.02879718607588,257.307134902101Z"/></g><g id="stars" inkscape:groupmode="layer" inkscape:label="stars"><path class="stars0" d="M130.173779542793,88.59961877991121m0,1.5997348750698193a1.5997348750698193,1.5997348750698193 0 1,1 0,-3.1994697501396385a1.5997348750698193,1.5997348750698193 0 1,1 0,3.1994697501396385z"/><path class="stars4" d="M131.00712744227096,45.74377999249647m0,1.5083825419277521a1.5083825419277521,1.5083825419277521 0 1,1 0,-3.0167650838555042a1.5083825419277521,1.5083825419277521 0 1,1 0,3.0167650838555042z"/><path class="stars10" d="M130.34536364144807,201.7207023517863m0,0.9637126713496089a0.9637126713496089,0.9637126713496089 0 1,1 0,-1.9274253426992178a0.9637126713496089,0.9637126713496089 0 1,1 0,1.9274253426992178z"/><path class="stars-2" d="M128.12474679176427,109.63719038656026m0,1.2930941501768034a1.2930941501768034,1.2930941501768034 0 1,1 0,-2.586188300353607a1.2930941501768034,1.2930941501768034 0 1,1 0,2.586188300353607z"/><path class="stars12" d="M125.67043651072026,146.61015869072384m0,1.0540479183691676a1.0540479183691676,1.0540479183691676 0 1,1 0,-2.108095836738335a1.0540479183691676,1.0540479183691676 0 1,1 0,2.108095836738335z"/><path class="stars6" d="M130.29351057747732,243.4084285202118m0,1.296719887460681a1.296719887460681,1.296719887460681 0 1,1 0,-2.593439774921362a1.296719887460681,1.296719887460681 0 1,1 0,2.593439774921362z"/><path class="stars2" d="M125.22694857816695,198.84944294194574m0,0.9503146985928518a0.9503146985928518,0.9503146985928518 0 1,1 0,-1.9006293971857036a0.9503146985928518,0.9503146985928518 0 1,1 0,1.9006293971857036z"/><path class="stars11" d="M125.06220126419535,196.8766679078013m0,1.4585428836056216a1.4585428836056216,1.4585428836056216 0 1,1 0,-2.917085767211243a1.4585428836056216,1.4585428836056216 0 1,1 0,2.917085767211243z"/><path class="stars-2" d="M123.68726612753214,52.69852717812037m0,1.0163704638149036a1.0163704638149036,1.0163704638149036 0 1,1 0,-2.032740927629807a1.0163704638149036,1.0163704638149036 0 1,1 0,2.032740927629807z"/><path class="stars13" d="M119.6081221955279,85.80787296695041m0,1.1432075049046568a1.1432075049046568,1.1432075049046568 0 1,1 0,-2.2864150098093137a1.1432075049046568,1.1432075049046568 0 1,1 0,2.2864150098093137z"/><path class="stars12" d="M123.33769205041976,49.050164549321536m0,1.5253713863363483a1.5253713863363483,1.5253713863363483 0 1,1 0,-3.0507427726726966a1.5253713863363483,1.5253713863363483 0 1,1 0,3.0507427726726966z"/><path class="stars10" d="M116.93253714796761,160.75399873892982m0,1.6132292450274255a1.6132292450274255,1.6132292450274255 0 1,1 0,-3.226458490054851a1.6132292450274255,1.6132292450274255 0 1,1 0,3.226458490054851z"/><path class="stars6" d="M121.61355958058193,47.21044246194241m0,1.0839783304242383a1.0839783304242383,1.0839783304242383 0 1,1 0,-2.1679566608484766a1.0839783304242383,1.0839783304242383 0 1,1 0,2.1679566608484766z"/><path class="stars0" d="M120.76131914274708,43.211468498042706m0,1.5642991753771458a1.5642991753771458,1.5642991753771458 0 1,1 0,-3.1285983507542916a1.5642991753771458,1.5642991753771458 0 1,1 0,3.1285983507542916z"/><path class="stars1" d="M115.01401231144474,74.32900725227432m0,0.9691246015706154a0.9691246015706154,0.9691246015706154 0 1,1 0,-1.9382492031412308a0.9691246015706154,0.9691246015706154 0 1,1 0,1.9382492031412308z"/><path class="stars9" d="M114.16493361531289,203.6823158002705m0,1.1273141131693556a1.1273141131693556,1.1273141131693556 0 1,1 0,-2.254628226338711a1.1273141131693556,1.1273141131693556 0 1,1 0,2.254628226338711z"/><path class="stars-1" d="M116.24112665038169,215.62265313378512m0,0.9476575391959581a0.9476575391959581,0.9476575391959581 0 1,1 0,-1.8953150783919162a0.9476575391959581,0.9476575391959581 0 1,1 0,1.8953150783919162z"/><path class="stars12" d="M107.05585172144264,148.86206407966841m0,1.0839783304242383a1.0839783304242383,1.0839783304242383 0 1,1 0,-2.1679566608484766a1.0839783304242383,1.0839783304242383 0 1,1 0,2.1679566608484766z"/><path class="stars16" d="M110.24959658409382,78.36795300197846m0,1.5997348750698193a1.5997348750698193,1.5997348750698193 0 1,1 0,-3.1994697501396385a1.5997348750698193,1.5997348750698193 0 1,1 0,3.1994697501396385z"/><path class="stars11" d="M101.121316913595,145.82635023990824m0,1.0423084454481577a1.0423084454481577,1.0423084454481577 0 1,1 0,-2.0846168908963154a1.0423084454481577,1.0423084454481577 0 1,1 0,2.0846168908963154z"/><path class="stars2" d="M114.32406168884668,43.26596032425519m0,1.3561338748821061a1.3561338748821061,1.3561338748821061 0 1,1 0,-2.7122677497642123a1.3561338748821061,1.3561338748821061 0 1,1 0,2.7122677497642123z"/><path class="stars15" d="M106.66129403292985,199.2736643963628m0,1.09926075440594a1.09926075440594,1.09926075440594 0 1,1 0,-2.19852150881188a1.09926075440594,1.09926075440594 0 1,1 0,2.19852150881188z"/><path class="stars10" d="M108.02522388781439,207.5688041457687m0,0.9503146985928518a0.9503146985928518,0.9503146985928518 0 1,1 0,-1.9006293971857036a0.9503146985928518,0.9503146985928518 0 1,1 0,1.9006293971857036z"/><path class="stars10" d="M99.0044711070945,108.92970160910826m0,1.0364878310850623a1.0364878310850623,1.0364878310850623 0 1,1 0,-2.0729756621701245a1.0364878310850623,1.0364878310850623 0 1,1 0,2.0729756621701245z"/><path class="stars-2" d="M110.19771777983631,219.0288163608489m0,2.517931956531857a2.517931956531857,2.517931956531857 0 1,1 0,-5.035863913063714a2.517931956531857,2.517931956531857 0 1,1 0,5.035863913063714z"/><path class="stars13" d="M106.02383238322734,58.87919899416727m0,1.0452309987606487a1.0452309987606487,1.0452309987606487 0 1,1 0,-2.0904619975212975a1.0452309987606487,1.0452309987606487 0 1,1 0,2.0904619975212975z"/><path class="stars7" d="M94.48125752405512,158.13779081274035m0,1.074911048348947a1.074911048348947,1.074911048348947 0 1,1 0,-2.149822096697894a1.074911048348947,1.074911048348947 0 1,1 0,2.149822096697894z"/><path class="stars11" d="M91.06256974621414,149.39928798961685m0,1.002240418429182a1.002240418429182,1.002240418429182 0 1,1 0,-2.004480836858364a1.002240418429182,1.002240418429182 0 1,1 0,2.004480836858364z"/><path class="stars5" d="M94.35071712780214,86.57136102165288m0,1.0961871293767458a1.0961871293767458,1.0961871293767458 0 1,1 0,-2.1923742587534916a1.0961871293767458,1.0961871293767458 0 1,1 0,2.1923742587534916z"/><path class="stars0" d="M91.64346929053008,102.47404509017082m0,0.9637126713496089a0.9637126713496089,0.9637126713496089 0 1,1 0,-1.9274253426992178a0.9637126713496089,0.9637126713496089 0 1,1 0,1.9274253426992178z"/><path class="stars-1" d="M110.58057304249488,37.96230515889161m0,1.1178843351335135a1.1178843351335135,1.1178843351335135 0 1,1 0,-2.235768670267027a1.1178843351335135,1.1178843351335135 0 1,1 0,2.235768670267027z"/><path class="stars2" d="M91.55886385605626,100.0894554951521m0,1.3637495285093708a1.3637495285093708,1.3637495285093708 0 1,1 0,-2.7274990570187416a1.3637495285093708,1.3637495285093708 0 1,1 0,2.7274990570187416z"/><path class="stars8" d="M102.81028442291085,211.8620076002058m0,1.0163704638149036a1.0163704638149036,1.0163704638149036 0 1,1 0,-2.032740927629807a1.0163704638149036,1.0163704638149036 0 1,1 0,2.032740927629807z"/><path class="stars3" d="M108.30151512412195,225.45023978465602m0,1.2822776522077217a1.2822776522077217,1.2822776522077217 0 1,1 0,-2.5645553044154434a1.2822776522077217,1.2822776522077217 0 1,1 0,2.5645553044154434z"/><path class="stars16" d="M89.72411359311837,166.42997950184173m0,0.9344827722033209a0.9344827722033209,0.9344827722033209 0 1,1 0,-1.8689655444066418a0.9344827722033209,0.9344827722033209 0 1,1 0,1.8689655444066418z"/><path class="stars0" d="M86.62303327128785,128.58145077530816m0,0.9800398081650807a0.9800398081650807,0.9800398081650807 0 1,1 0,-1.9600796163301615a0.9800398081650807,0.9800398081650807 0 1,1 0,1.9600796163301615z"/><path class="stars0" d="M115.83909768606134,26.817044142473307m0,0.9450078094390256a0.9450078094390256,0.9450078094390256 0 1,1 0,-1.8900156188780513a0.9450078094390256,0.9450078094390256 0 1,1 0,1.8900156188780513z"/><path class="stars14" d="M95.8883282448449,67.15161009907933m0,1.5863533830687182a1.5863533830687182,1.5863533830687182 0 1,1 0,-3.1727067661374364a1.5863533830687182,1.5863533830687182 0 1,1 0,3.1727067661374364z"/><path class="stars12" d="M87.81174228907622,95.69610172463169m0,1.6268374451098802a1.6268374451098802,1.6268374451098802 0 1,1 0,-3.2536748902197603a1.6268374451098802,1.6268374451098802 0 1,1 0,3.2536748902197603z"/><path class="stars1" d="M90.92518830381755,77.8996069270303m0,1.2329848197080322a1.2329848197080322,1.2329848197080322 0 1,1 0,-2.4659696394160644a1.2329848197080322,1.2329848197080322 0 1,1 0,2.4659696394160644z"/><path class="stars-1" d="M97.63908101312761,212.48188590097993m0,1.0540479183691676a1.0540479183691676,1.0540479183691676 0 1,1 0,-2.108095836738335a1.0540479183691676,1.0540479183691676 0 1,1 0,2.108095836738335z"/><path class="stars6" d="M132.11137338124294,8.646567055485349m0,1.6451604417402497a1.6451604417402497,1.6451604417402497 0 1,1 0,-3.2903208834804993a1.6451604417402497,1.6451604417402497 0 1,1 0,3.2903208834804993z"/><path class="stars1" d="M71.5190763448283,127.6751275804635m0,1.0809474363309648a1.0809474363309648,1.0809474363309648 0 1,1 0,-2.1618948726619296a1.0809474363309648,1.0809474363309648 0 1,1 0,2.1618948726619296z"/><path class="stars-1" d="M74.75658743766144,88.50345304275004m0,1.0393940638392178a1.0393940638392178,1.0393940638392178 0 1,1 0,-2.0787881276784357a1.0393940638392178,1.0393940638392178 0 1,1 0,2.0787881276784357z"/><path class="stars17" d="M93.11945089197417,45.910432983960206m0,0.9938568591585841a0.9938568591585841,0.9938568591585841 0 1,1 0,-1.9877137183171683a0.9938568591585841,0.9938568591585841 0 1,1 0,1.9877137183171683z"/><path class="stars8" d="M89.63282973377582,50.03071308119259m0,0.9503146985928518a0.9503146985928518,0.9503146985928518 0 1,1 0,-1.9006293971857036a0.9503146985928518,0.9503146985928518 0 1,1 0,1.9006293971857036z"/><path class="stars11" d="M67.35673146875253,147.7872410313753m0,0.9610180501000648a0.9610180501000648,0.9610180501000648 0 1,1 0,-1.9220361002001296a0.9610180501000648,0.9610180501000648 0 1,1 0,1.9220361002001296z"/><path class="stars1" d="M79.251504375828,198.08155388397284m0,1.275116965990018a1.275116965990018,1.275116965990018 0 1,1 0,-2.550233931980036a1.275116965990018,1.275116965990018 0 1,1 0,2.550233931980036z"/><path class="stars16" d="M64.77579956813913,126.15962348249887m0,1.4024741297507906a1.4024741297507906,1.4024741297507906 0 1,1 0,-2.804948259501581a1.4024741297507906,1.4024741297507906 0 1,1 0,2.804948259501581z"/><path class="stars7" d="M87.93655289647424,48.426723371999785m0,1.2644508439051823a1.2644508439051823,1.2644508439051823 0 1,1 0,-2.5289016878103645a1.2644508439051823,1.2644508439051823 0 1,1 0,2.5289016878103645z"/><path class="stars15" d="M76.34800399213762,69.79519132983916m0,1.1273141131693556a1.1273141131693556,1.1273141131693556 0 1,1 0,-2.254628226338711a1.1273141131693556,1.1273141131693556 0 1,1 0,2.254628226338711z"/><path class="stars0" d="M76.96011813405046,66.4296428726166m0,1.5908013968545753a1.5908013968545753,1.5908013968545753 0 1,1 0,-3.1816027937091507a1.5908013968545753,1.5908013968545753 0 1,1 0,3.1816027937091507z"/><path class="stars10" d="M79.50670818204472,60.53209332708792m0,0.9883068153739996a0.9883068153739996,0.9883068153739996 0 1,1 0,-1.9766136307479991a0.9883068153739996,0.9883068153739996 0 1,1 0,1.9766136307479991z"/><path class="stars5" d="M68.5389812681646,181.1123090340672m0,0.9855434268403132a0.9855434268403132,0.9855434268403132 0 1,1 0,-1.9710868536806263a0.9855434268403132,0.9855434268403132 0 1,1 0,1.9710868536806263z"/><path class="stars16" d="M62.88148119095128,169.64644287238315m0,1.0135286069724805a1.0135286069724805,1.0135286069724805 0 1,1 0,-2.027057213944961a1.0135286069724805,1.0135286069724805 0 1,1 0,2.027057213944961z"/><path class="stars5" d="M80.20515713947782,52.38506069061131m0,1.730201563530477a1.730201563530477,1.730201563530477 0 1,1 0,-3.460403127060954a1.730201563530477,1.730201563530477 0 1,1 0,3.460403127060954z"/><path class="stars9" d="M57.47721899185336,117.58303455460494m0,1.0393940638392178a1.0393940638392178,1.0393940638392178 0 1,1 0,-2.0787881276784357a1.0393940638392178,1.0393940638392178 0 1,1 0,2.0787881276784357z"/><path class="stars-1" d="M56.79412287378159,116.34513429821395m0,1.0050506240526558a1.0050506240526558,1.0050506240526558 0 1,1 0,-2.0101012481053115a1.0050506240526558,1.0050506240526558 0 1,1 0,2.0101012481053115z"/><path class="stars9" d="M54.77746795618462,149.28698165421397m0,1.00786870927817a1.00786870927817,1.00786870927817 0 1,1 0,-2.01573741855634a1.00786870927817,1.00786870927817 0 1,1 0,2.01573741855634z"/><path class="stars-1" d="M73.97945813883766,54.14574196624011m0,1.2295372910054185a1.2295372910054185,1.2295372910054185 0 1,1 0,-2.459074582010837a1.2295372910054185,1.2295372910054185 0 1,1 0,2.459074582010837z"/><path class="stars9" d="M51.348557958348195,150.00445954720058m0,1.065919612443201a1.065919612443201,1.065919612443201 0 1,1 0,-2.131839224886402a1.065919612443201,1.065919612443201 0 1,1 0,2.131839224886402z"/><path class="stars11" d="M93.42284476728037,234.6622752478604m0,0.9745669236185506a0.9745669236185506,0.9745669236185506 0 1,1 0,-1.9491338472371011a0.9745669236185506,0.9745669236185506 0 1,1 0,1.9491338472371011z"/><path class="stars0" d="M60.81787155601164,77.96351204338868m0,0.9745669236185506a0.9745669236185506,0.9745669236185506 0 1,1 0,-1.9491338472371011a0.9745669236185506,0.9745669236185506 0 1,1 0,1.9491338472371011z"/><path class="stars-1" d="M55.8633778293686,91.40993058169329m0,1.00786870927817a1.00786870927817,1.00786870927817 0 1,1 0,-2.01573741855634a1.00786870927817,1.00786870927817 0 1,1 0,2.01573741855634z"/><path class="stars4" d="M68.57764792845786,61.74370610603229m0,0.9938568591585841a0.9938568591585841,0.9938568591585841 0 1,1 0,-1.9877137183171683a0.9938568591585841,0.9938568591585841 0 1,1 0,1.9877137183171683z"/><path class="stars-1" d="M55.69742052699341,90.93969753161656m0,0.9664148481114323a0.9664148481114323,0.9664148481114323 0 1,1 0,-1.9328296962228646a0.9664148481114323,0.9664148481114323 0 1,1 0,1.9328296962228646z"/><path class="stars16" d="M106.58425499912052,245.23714849517864m0,1.1464129714773537a1.1464129714773537,1.1464129714773537 0 1,1 0,-2.2928259429547073a1.1464129714773537,1.1464129714773537 0 1,1 0,2.2928259429547073z"/><path class="stars-1" d="M55.051319058784955,91.30360135182602m0,1.2858730608570121a1.2858730608570121,1.2858730608570121 0 1,1 0,-2.5717461217140243a1.2858730608570121,1.2858730608570121 0 1,1 0,2.5717461217140243z"/><path class="stars-1" d="M54.50702659428198,91.31240871533126m0,1.0364878310850623a1.0364878310850623,1.0364878310850623 0 1,1 0,-2.0729756621701245a1.0364878310850623,1.0364878310850623 0 1,1 0,2.0729756621701245z"/><path class="stars3" d="M57.74074133868736,78.0452030819608m0,1.289478550757686a1.289478550757686,1.289478550757686 0 1,1 0,-2.578957101515372a1.289478550757686,1.289478550757686 0 1,1 0,2.578957101515372z"/><path class="stars-2" d="M63.133397626248325,64.81870798655514m0,1.2679962675448688a1.2679962675448688,1.2679962675448688 0 1,1 0,-2.5359925350897377a1.2679962675448688,1.2679962675448688 0 1,1 0,2.5359925350897377z"/><path class="stars16" d="M47.396956501158485,156.8917871596112m0,1.2433855139533996a1.2433855139533996,1.2433855139533996 0 1,1 0,-2.486771027906799a1.2433855139533996,1.2433855139533996 0 1,1 0,2.486771027906799z"/><path class="stars0" d="M59.309758080623,71.4121304234687m0,0.9371029905593127a0.9371029905593127,0.9371029905593127 0 1,1 0,-1.8742059811186254a0.9371029905593127,0.9371029905593127 0 1,1 0,1.8742059811186254z"/><path class="stars-1" d="M46.23910073000525,110.82172560815854m0,1.09926075440594a1.09926075440594,1.09926075440594 0 1,1 0,-2.19852150881188a1.09926075440594,1.09926075440594 0 1,1 0,2.19852150881188z"/><path class="stars0" d="M44.06758791339199,122.29891764093362m0,0.955651389693508a0.955651389693508,0.955651389693508 0 1,1 0,-1.911302779387016a0.955651389693508,0.955651389693508 0 1,1 0,1.911302779387016z"/><path class="stars0" d="M68.21920065774835,52.34013262138805m0,0.9423654885481597a0.9423654885481597,0.9423654885481597 0 1,1 0,-1.8847309770963194a0.9423654885481597,0.9423654885481597 0 1,1 0,1.8847309770963194z"/><path class="stars11" d="M61.34815434769628,205.9331341627768m0,0.9718419529716383a0.9718419529716383,0.9718419529716383 0 1,1 0,-1.9436839059432767a0.9718419529716383,0.9718419529716383 0 1,1 0,1.9436839059432767z"/><path class="stars9" d="M85.96509679159105,233.9564062645884m0,1.124162048602224a1.124162048602224,1.124162048602224 0 1,1 0,-2.248324097204448a1.124162048602224,1.124162048602224 0 1,1 0,2.248324097204448z"/><path class="stars-1" d="M52.66526148010726,192.6625782316596m0,1.0570033882675525a1.0570033882675525,1.0570033882675525 0 1,1 0,-2.114006776535105a1.0570033882675525,1.0570033882675525 0 1,1 0,2.114006776535105z"/><path class="stars10" d="M41.18693944802007,104.62177630895104m0,1.0278177984208692a1.0278177984208692,1.0278177984208692 0 1,1 0,-2.0556355968417384a1.0278177984208692,1.0278177984208692 0 1,1 0,2.0556355968417384z"/><path class="stars10" d="M41.000739551152364,101.06659445336369m0,0.9938568591585841a0.9938568591585841,0.9938568591585841 0 1,1 0,-1.9877137183171683a0.9938568591585841,0.9938568591585841 0 1,1 0,1.9877137183171683z"/><path class="stars15" d="M51.23530044854439,193.4734020200858m0,0.9397305558075506a0.9397305558075506,0.9397305558075506 0 1,1 0,-1.8794611116151012a0.9397305558075506,0.9397305558075506 0 1,1 0,1.8794611116151012z"/><path class="stars10" d="M38.60361023436586,103.66989647626988m0,0.9745669236185506a0.9745669236185506,0.9745669236185506 0 1,1 0,-1.9491338472371011a0.9745669236185506,0.9745669236185506 0 1,1 0,1.9491338472371011z"/><path class="stars10" d="M40.0339325883469,97.8732484296203m0,1.0629392120361247a1.0629392120361247,1.0629392120361247 0 1,1 0,-2.1258784240722495a1.0629392120361247,1.0629392120361247 0 1,1 0,2.1258784240722495z"/><path class="stars2" d="M38.53961871435891,103.83153659130113m0,1.1023429976450794a1.1023429976450794,1.1023429976450794 0 1,1 0,-2.2046859952901587a1.1023429976450794,1.1023429976450794 0 1,1 0,2.2046859952901587z"/><path class="stars-1" d="M72.52203317283673,226.1309566360224m0,1.1336447815303772a1.1336447815303772,1.1336447815303772 0 1,1 0,-2.2672895630607544a1.1336447815303772,1.1336447815303772 0 1,1 0,2.2672895630607544z"/><path class="stars10" d="M45.37634087735344,188.5251124964229m0,0.9827877649721412a0.9827877649721412,0.9827877649721412 0 1,1 0,-1.9655755299442823a0.9827877649721412,0.9827877649721412 0 1,1 0,1.9655755299442823z"/><path class="stars15" d="M36.598080864517684,102.36080426123361m0,2.2385714400362366a2.2385714400362366,2.2385714400362366 0 1,1 0,-4.477142880072473a2.2385714400362366,2.2385714400362366 0 1,1 0,4.477142880072473z"/><path class="stars-2" d="M33.02043303696405,139.2759146540323m0,0.9503146985928518a0.9503146985928518,0.9503146985928518 0 1,1 0,-1.9006293971857036a0.9503146985928518,0.9503146985928518 0 1,1 0,1.9006293971857036z"/><path class="stars11" d="M35.01187285399787,159.6909808194207m0,0.9691246015706154a0.9691246015706154,0.9691246015706154 0 1,1 0,-1.9382492031412308a0.9691246015706154,0.9691246015706154 0 1,1 0,1.9382492031412308z"/><path class="stars5" d="M29.302104439370765,119.70921328526516m0,1.169104314458651a1.169104314458651,1.169104314458651 0 1,1 0,-2.338208628917302a1.169104314458651,1.169104314458651 0 1,1 0,2.338208628917302z"/><path class="stars-2" d="M28.640661978726612,122.26907675662353m0,1.0192202890069684a1.0192202890069684,1.0192202890069684 0 1,1 0,-2.0384405780139367a1.0192202890069684,1.0192202890069684 0 1,1 0,2.0384405780139367z"/><path class="stars-2" d="M27.338527526018055,128.30020961371574m0,1.0106946961995278a1.0106946961995278,1.0106946961995278 0 1,1 0,-2.0213893923990556a1.0106946961995278,1.0106946961995278 0 1,1 0,2.0213893923990556z"/><path class="stars15" d="M42.19355695048249,71.27546282795736m0,1.344790061052727a1.344790061052727,1.344790061052727 0 1,1 0,-2.689580122105454a1.344790061052727,1.344790061052727 0 1,1 0,2.689580122105454z"/><path class="stars5" d="M52.74955834932574,53.35019663656989m0,1.222671125383101a1.222671125383101,1.222671125383101 0 1,1 0,-2.445342250766202a1.222671125383101,1.222671125383101 0 1,1 0,2.445342250766202z"/><path class="stars12" d="M49.3273518183358,57.62657604111784m0,1.0163704638149036a1.0163704638149036,1.0163704638149036 0 1,1 0,-2.032740927629807a1.0163704638149036,1.0163704638149036 0 1,1 0,2.032740927629807z"/><path class="stars15" d="M31.313369051354016,176.1053686388027m0,1.169104314458651a1.169104314458651,1.169104314458651 0 1,1 0,-2.338208628917302a1.169104314458651,1.169104314458651 0 1,1 0,2.338208628917302z"/><path class="stars-1" d="M48.69098057762535,56.95983312168241m0,1.1723823937084066a1.1723823937084066,1.1723823937084066 0 1,1 0,-2.344764787416813a1.1723823937084066,1.1723823937084066 0 1,1 0,2.344764787416813z"/><path class="stars2" d="M23.493674064098315,143.01344868557447m0,1.3113247849566756a1.3113247849566756,1.3113247849566756 0 1,1 0,-2.622649569913351a1.3113247849566756,1.3113247849566756 0 1,1 0,2.622649569913351z"/><path class="stars-1" d="M25.64173798351115,164.89925483206198m0,1.136823434956739a1.136823434956739,1.136823434956739 0 1,1 0,-2.273646869913478a1.136823434956739,1.136823434956739 0 1,1 0,2.273646869913478z"/><path class="stars0" d="M22.144988738732337,149.31098147517037m0,2.7156678609457217a2.7156678609457217,2.7156678609457217 0 1,1 0,-5.431335721891443a2.7156678609457217,2.7156678609457217 0 1,1 0,5.431335721891443z"/><path class="stars8" d="M52.883181857623455,48.439864702084535m0,2.7927811085185428a2.7927811085185428,2.7927811085185428 0 1,1 0,-5.5855622170370856a2.7927811085185428,2.7927811085185428 0 1,1 0,5.5855622170370856z"/><path class="stars-1" d="M20.922545015975615,146.69744671664233m0,1.0452309987606487a1.0452309987606487,1.0452309987606487 0 1,1 0,-2.0904619975212975a1.0452309987606487,1.0452309987606487 0 1,1 0,2.0904619975212975z"/><path class="stars-2" d="M18.248078210935873,137.86597169670765m0,1.1178843351335135a1.1178843351335135,1.1178843351335135 0 1,1 0,-2.235768670267027a1.1178843351335135,1.1178843351335135 0 1,1 0,2.235768670267027z"/><path class="stars-2" d="M18.622672847988994,120.11289377928533m0,1.8044176577318727a1.8044176577318727,1.8044176577318727 0 1,1 0,-3.6088353154637454a1.8044176577318727,1.8044176577318727 0 1,1 0,3.6088353154637454z"/><path class="stars-1" d="M30.919602624807155,76.66729221262834m0,1.7993723550102976a1.7993723550102976,1.7993723550102976 0 1,1 0,-3.598744710020595a1.7993723550102976,1.7993723550102976 0 1,1 0,3.598744710020595z"/><path class="stars8" d="M24.15769558323852,174.6921789236265m0,1.3003557910351182a1.3003557910351182,1.3003557910351182 0 1,1 0,-2.6007115820702364a1.3003557910351182,1.3003557910351182 0 1,1 0,2.6007115820702364z"/><path class="stars11" d="M36.88926772435012,202.091622640082m0,0.9691246015706154a0.9691246015706154,0.9691246015706154 0 1,1 0,-1.9382492031412308a0.9691246015706154,0.9691246015706154 0 1,1 0,1.9382492031412308z"/><path class="stars-2" d="M15.965171868523683,133.61603913888337m0,1.5211063203335202a1.5211063203335202,1.5211063203335202 0 1,1 0,-3.0422126406670404a1.5211063203335202,1.5211063203335202 0 1,1 0,3.0422126406670404z"/><path class="stars2" d="M21.10036188995997,169.26161885221217m0,1.3868540551965896a1.3868540551965896,1.3868540551965896 0 1,1 0,-2.773708110393179a1.3868540551965896,1.3868540551965896 0 1,1 0,2.773708110393179z"/><path class="stars6" d="M77.20413870162528,241.0308759705599m0,0.9966435579218538a0.9966435579218538,0.9966435579218538 0 1,1 0,-1.9932871158437075a0.9966435579218538,0.9966435579218538 0 1,1 0,1.9932871158437075z"/><path class="stars-2" d="M16.746499832555088,112.502090770465m0,1.1054338832589665a1.1054338832589665,1.1054338832589665 0 1,1 0,-2.210867766517933a1.1054338832589665,1.1054338832589665 0 1,1 0,2.210867766517933z"/><path class="stars-2" d="M15.574911850005464,145.23513908356463m0,1.3223863064991197a1.3223863064991197,1.3223863064991197 0 1,1 0,-2.6447726129982394a1.3223863064991197,1.3223863064991197 0 1,1 0,2.6447726129982394z"/><path class="stars-2" d="M14.778398977954566,135.4957082074571m0,1.7793318211139448a1.7793318211139448,1.7793318211139448 0 1,1 0,-3.5586636422278897a1.7793318211139448,1.7793318211139448 0 1,1 0,3.5586636422278897z"/><path class="stars-1" d="M22.005343324300398,89.83466536333111m0,1.2433855139533996a1.2433855139533996,1.2433855139533996 0 1,1 0,-2.486771027906799a1.2433855139533996,1.2433855139533996 0 1,1 0,2.486771027906799z"/><path class="stars-2" d="M14.147332173216626,138.4248443207022m0,0.9938568591585841a0.9938568591585841,0.9938568591585841 0 1,1 0,-1.9877137183171683a0.9938568591585841,0.9938568591585841 0 1,1 0,1.9877137183171683z"/><path class="stars-1" d="M33.560158505276206,200.59001638345688m0,1.3599363707416823a1.3599363707416823,1.3599363707416823 0 1,1 0,-2.7198727414833646a1.3599363707416823,1.3599363707416823 0 1,1 0,2.7198727414833646z"/><path class="stars-2" d="M13.523470629762997,137.06989143616812m0,1.7545947392292267a1.7545947392292267,1.7545947392292267 0 1,1 0,-3.5091894784584534a1.7545947392292267,1.7545947392292267 0 1,1 0,3.5091894784584534z"/><path class="stars5" d="M21.2855415275438,179.30090402213082m0,1.0452309987606487a1.0452309987606487,1.0452309987606487 0 1,1 0,-2.0904619975212975a1.0452309987606487,1.0452309987606487 0 1,1 0,2.0904619975212975z"/><path class="stars1" d="M15.64295079112867,164.13050125165412m0,1.0570033882675525a1.0570033882675525,1.0570033882675525 0 1,1 0,-2.114006776535105a1.0570033882675525,1.0570033882675525 0 1,1 0,2.114006776535105z"/><path class="stars2" d="M55.99925177710318,228.57709323569168m0,0.9718419529716383a0.9718419529716383,0.9718419529716383 0 1,1 0,-1.9436839059432767a0.9718419529716383,0.9718419529716383 0 1,1 0,1.9436839059432767z"/><path class="stars-2" d="M13.169359976431181,153.46276204864785m0,1.5997348750698193a1.5997348750698193,1.5997348750698193 0 1,1 0,-3.1994697501396385a1.5997348750698193,1.5997348750698193 0 1,1 0,3.1994697501396385z"/><path class="stars11" d="M33.339179116605976,204.91733907143302m0,1.1922447949315025a1.1922447949315025,1.1922447949315025 0 1,1 0,-2.384489589863005a1.1922447949315025,1.1922447949315025 0 1,1 0,2.384489589863005z"/><path class="stars10" d="M18.404043521898075,176.77919398349152m0,0.9966435579218538a0.9966435579218538,0.9966435579218538 0 1,1 0,-1.9932871158437075a0.9966435579218538,0.9966435579218538 0 1,1 0,1.9932871158437075z"/><path class="stars11" d="M37.59283367095432,55.20055976458049m0,0.9397305558075506a0.9397305558075506,0.9397305558075506 0 1,1 0,-1.8794611116151012a0.9397305558075506,0.9397305558075506 0 1,1 0,1.8794611116151012z"/><path class="stars15" d="M10.446918482684168,117.05196377221412m0,2.517931956531857a2.517931956531857,2.517931956531857 0 1,1 0,-5.035863913063714a2.517931956531857,2.517931956531857 0 1,1 0,5.035863913063714z"/><path class="stars3" d="M12.829761242098371,163.36307487091347m0,1.0106946961995278a1.0106946961995278,1.0106946961995278 0 1,1 0,-2.0213893923990556a1.0106946961995278,1.0106946961995278 0 1,1 0,2.0213893923990556z"/><path class="stars11" d="M41.53146985534414,217.8330226181282m0,0.9423654885481597a0.9423654885481597,0.9423654885481597 0 1,1 0,-1.8847309770963194a0.9423654885481597,0.9423654885481597 0 1,1 0,1.8847309770963194z"/><path class="stars10" d="M60.17281610294749,31.576729655723213m0,1.00786870927817a1.00786870927817,1.00786870927817 0 1,1 0,-2.01573741855634a1.00786870927817,1.00786870927817 0 1,1 0,2.01573741855634z"/><path class="stars1" d="M44.69456020825746,44.76278343705056m0,1.6777236635212134a1.6777236635212134,1.6777236635212134 0 1,1 0,-3.3554473270424268a1.6777236635212134,1.6777236635212134 0 1,1 0,3.3554473270424268z"/><path class="stars-1" d="M33.598899413656056,57.444750185758494m0,1.3599363707416823a1.3599363707416823,1.3599363707416823 0 1,1 0,-2.7198727414833646a1.3599363707416823,1.3599363707416823 0 1,1 0,2.7198727414833646z"/><path class="stars13"/><path class="stars16"/><path class="stars-2"/><path class="stars9"/><path class="stars-2"/><path class="stars16"/><path class="stars2"/><path class="stars-1"/><path class="stars10"/><path class="stars0"/><path class="stars-1"/><path class="stars14"/><path class="stars0"/><path class="stars4"/><path class="stars2"/><path class="stars-1"/><path class="stars12"/><path class="stars1"/><path class="stars17"/><path class="stars-2"/><path class="stars17"/><path class="stars-1"/><path class="stars7"/><path class="stars10"/><path class="stars8"/><path class="stars16"/><path class="stars1"/><path class="stars4"/><path class="stars-1"/><path class="stars10"/><path class="stars-1"/><path class="stars15"/><path class="stars0"/><path class="stars-2"/><path class="stars4"/><path class="stars10"/><path class="stars10"/><path class="stars2"/><path class="stars9"/><path class="stars17"/><path class="stars10"/><path class="stars12"/><path class="stars10"/><path class="stars-2"/><path class="stars-3"/><path class="stars5"/><path class="stars-1"/><path class="stars15"/><path class="stars12"/><path class="stars0"/><path class="stars11"/><path class="stars9"/><path class="stars9"/><path class="stars-2"/><path class="stars7"/><path class="stars-2"/><path class="stars11"/><path class="stars0"/><path class="stars0"/><path class="stars7"/><path class="stars-1"/><path class="stars10"/><path class="stars2"/><path class="stars5"/><path class="stars1"/><path class="stars0"/><path class="stars12"/><path class="stars17"/><path class="stars-2"/><path class="stars-2"/><path class="stars1"/><path class="stars-1"/><path class="stars2"/><path class="stars1"/><path class="stars16"/><path class="stars-1"/><path class="stars14"/><path class="stars4"/><path class="stars15"/><path class="stars4"/><path class="stars5"/><path class="stars13"/><path class="stars5"/><path class="stars10"/><path class="stars8"/><path class="stars3"/><path class="stars3"/><path class="stars12"/><path class="stars-1"/><path class="stars0"/><path class="stars-1"/><path class="stars10"/><path class="stars-1"/><path class="stars1"/><path class="stars3"/><path class="stars15"/><path class="stars0"/><path class="stars11"/><path class="stars16"/><path class="stars4"/><path class="stars15"/><path class="stars3"/><path class="stars-1"/><path class="stars-1"/><path class="stars3"/><path class="stars-2"/><path class="stars9"/><path class="stars12"/><path class="stars10"/><path class="stars9"/><path class="stars0"/><path class="stars11"/><path class="stars12"/><path class="stars11"/><path class="stars1"/><path class="stars0"/><path class="stars6"/><path class="stars14"/><path class="stars11"/><path class="stars-2"/><path class="stars4"/><path class="stars16"/><path class="stars9"/><path class="stars0"/><path class="stars2"/><path class="stars12"/><path class="stars1"/><path class="stars5"/><path class="stars0"/><path class="stars-1"/><path class="stars13"/><path class="stars-2"/><path class="stars-2"/><path class="stars1"/><path class="stars-1"/><path class="stars0"/><path class="stars14"/><path class="stars-2"/><path class="stars-2"/><path class="stars0"/><path class="stars16"/><path class="stars-2"/><path class="stars-1"/><path class="stars9"/><path class="stars-2"/><path class="stars0"/><path class="stars0"/><path class="stars4"/><path class="stars-2"/><path class="stars-2"/><path class="stars0"/><path class="stars16"/><path class="stars-1"/><path class="stars9"/><path class="stars12"/><path class="stars9"/><path class="stars1"/><path class="stars1"/><path class="stars-2"/><path class="stars2"/><path class="stars12"/><path class="stars1"/><path class="stars-2"/><path class="stars-1"/><path class="stars-2"/><path class="stars-2"/><path class="stars6"/><path class="stars-2"/><path class="stars-2"/><path class="stars-2"/><path class="stars-2"/><path class="stars0"/><path class="stars11"/><path class="stars10"/><path class="stars12"/><path class="stars-2"/><path class="stars13"/><path class="stars2"/><path class="stars-2"/><path class="stars9"/><path class="stars7"/><path class="stars0"/><path class="stars-2"/><path class="stars3"/><path class="stars4"/><path class="stars10"/><path class="stars0"/><path class="stars14"/><path class="stars15"/><path class="stars1"/><path class="stars-2"/><path class="stars-2"/><path class="stars10"/><path class="stars17"/><path class="stars-1"/><path class="stars0"/><path class="stars9"/><path class="stars10"/><path class="stars-1"/><path class="stars0"/><path class="stars1"/><path class="stars-2"/><path class="stars15"/><path class="stars-2"/><path class="stars12"/><path class="stars3"/><path class="stars0"/><path class="stars3"/><path class="stars-2"/><path class="stars10"/><path class="stars14"/><path class="stars-2"/><path class="stars0"/><path class="stars12"/><path class="stars1"/><path class="stars0"/><path class="stars1"/><path class="stars0"/><path class="stars3"/><path class="stars5"/><path class="stars-2"/><path class="stars-2"/><path class="stars-2"/><path class="stars-1"/><path class="stars-1"/><path class="stars0"/><path class="stars1"/><path class="stars16"/><path class="stars11"/><path class="stars10"/><path class="stars-2"/><path class="stars3"/><path class="stars3"/><path class="stars9"/><path class="stars19"/><path class="stars9"/><path class="stars0"/><path class="stars9"/><path class="stars-2"/><path class="stars0"/><path class="stars7"/><path class="stars9"/><path class="stars14"/><path class="stars16"/><path class="stars11"/><path class="stars-2"/><path class="stars-2"/><path class="stars14"/><path class="stars12"/><path class="stars16"/><path class="stars0"/><path class="stars-1"/><path class="stars1"/><path class="stars4"/><path class="stars12"/><path class="stars1"/><path class="stars14"/><path class="stars-2"/><path class="stars15"/><path class="stars-1"/><path class="stars10"/><path class="stars-2"/><path class="stars-1"/><path class="stars-1"/><path class="stars-2"/><path class="stars2"/><path class="stars4"/><path class="stars3"/><path class="stars-2"/><path class="stars-2"/><path class="stars12"/><path class="stars12"/><path class="stars8"/><path class="stars5"/><path class="stars0"/><path class="stars12"/><path class="stars12"/><path class="stars14"/><path class="stars15"/><path class="stars9"/><path class="stars10"/><path class="stars0" d="M257.7463964322124,126.6164167570822m0,0.9503146985928518a0.9503146985928518,0.9503146985928518 0 1,1 0,-1.9006293971857036a0.9503146985928518,0.9503146985928518 0 1,1 0,1.9006293971857036z"/><path class="stars10" d="M239.68149571672498,195.61504492964775m0,1.2399089040395945a1.2399089040395945,1.2399089040395945 0 1,1 0,-2.479817808079189a1.2399089040395945,1.2399089040395945 0 1,1 0,2.479817808079189z"/><path class="stars-1" d="M212.5166972414585,227.99991114850013m0,1.0278177984208692a1.0278177984208692,1.0278177984208692 0 1,1 0,-2.0556355968417384a1.0278177984208692,1.0278177984208692 0 1,1 0,2.0556355968417384z"/><path class="stars2" d="M254.38246462318767,112.55385209474598m0,1.0106946961995278a1.0106946961995278,1.0106946961995278 0 1,1 0,-2.0213893923990556a1.0106946961995278,1.0106946961995278 0 1,1 0,2.0213893923990556z"/><path class="stars0" d="M241.05895558221118,73.70550549290485m0,0.9745669236185506a0.9745669236185506,0.9745669236185506 0 1,1 0,-1.9491338472371011a0.9745669236185506,0.9745669236185506 0 1,1 0,1.9491338472371011z"/><path class="stars2" d="M246.39749616711555,176.70548857330874m0,0.9745669236185506a0.9745669236185506,0.9745669236185506 0 1,1 0,-1.9491338472371011a0.9745669236185506,0.9745669236185506 0 1,1 0,1.9491338472371011z"/><path class="stars16" d="M229.99469851036338,205.60484232776167m0,1.1989400951266236a1.1989400951266236,1.1989400951266236 0 1,1 0,-2.397880190253247a1.1989400951266236,1.1989400951266236 0 1,1 0,2.397880190253247z"/><path class="stars14" d="M237.02704021293692,192.84176419033227m0,1.3335411361679999a1.3335411361679999,1.3335411361679999 0 1,1 0,-2.6670822723359997a1.3335411361679999,1.3335411361679999 0 1,1 0,2.6670822723359997z"/><path class="stars5" d="M169.54536795351203,15.234231370550134m0,1.0570033882675525a1.0570033882675525,1.0570033882675525 0 1,1 0,-2.114006776535105a1.0570033882675525,1.0570033882675525 0 1,1 0,2.114006776535105z"/><path class="stars9" d="M251.99572425671676,139.04693877860353m0,1.1560833993728752a1.1560833993728752,1.1560833993728752 0 1,1 0,-2.3121667987457504a1.1560833993728752,1.1560833993728752 0 1,1 0,2.3121667987457504z"/><path class="stars12" d="M243.38616642851548,88.71707537383034m0,0.9718419529716383a0.9718419529716383,0.9718419529716383 0 1,1 0,-1.9436839059432767a0.9718419529716383,0.9718419529716383 0 1,1 0,1.9436839059432767z"/><path class="stars0" d="M231.4868061243887,200.70853874689448m0,1.730201563530477a1.730201563530477,1.730201563530477 0 1,1 0,-3.460403127060954a1.730201563530477,1.730201563530477 0 1,1 0,3.460403127060954z"/><path class="stars-2" d="M216.04992083876988,219.40693389641638m0,1.074911048348947a1.074911048348947,1.074911048348947 0 1,1 0,-2.149822096697894a1.074911048348947,1.074911048348947 0 1,1 0,2.149822096697894z"/><path class="stars10" d="M239.4485990650837,183.92919470673758m0,1.296719887460681a1.296719887460681,1.296719887460681 0 1,1 0,-2.593439774921362a1.296719887460681,1.296719887460681 0 1,1 0,2.593439774921362z"/><path class="stars13" d="M247.0152548534823,149.7025509867509m0,0.9718419529716383a0.9718419529716383,0.9718419529716383 0 1,1 0,-1.9436839059432767a0.9718419529716383,0.9718419529716383 0 1,1 0,1.9436839059432767z"/><path class="stars0" d="M223.76015531276607,59.1881399496736m0,2.8321550183011883a2.8321550183011883,2.8321550183011883 0 1,1 0,-5.664310036602377a2.8321550183011883,2.8321550183011883 0 1,1 0,5.664310036602377z"/><path class="stars-1" d="M233.75345272622744,185.3027400965721m0,1.175669664442134a1.175669664442134,1.175669664442134 0 1,1 0,-2.351339328884268a1.175669664442134,1.175669664442134 0 1,1 0,2.351339328884268z"/><path class="stars0" d="M226.86891275637927,69.75017041288842m0,1.065919612443201a1.065919612443201,1.065919612443201 0 1,1 0,-2.131839224886402a1.065919612443201,1.065919612443201 0 1,1 0,2.131839224886402z"/><path class="stars-1" d="M231.848884467862,183.2548253831692m0,1.6087185211018507a1.6087185211018507,1.6087185211018507 0 1,1 0,-3.2174370422037013a1.6087185211018507,1.6087185211018507 0 1,1 0,3.2174370422037013z"/><path class="stars12" d="M234.81201816108137,173.5429357653125m0,1.065919612443201a1.065919612443201,1.065919612443201 0 1,1 0,-2.131839224886402a1.065919612443201,1.065919612443201 0 1,1 0,2.131839224886402z"/><path class="stars0" d="M225.42407800523358,71.73350375242124m0,1.149627425933619a1.149627425933619,1.149627425933619 0 1,1 0,-2.299254851867238a1.149627425933619,1.149627425933619 0 1,1 0,2.299254851867238z"/><path class="stars1" d="M227.03905398739124,189.05648075068606m0,1.3791093778235466a1.3791093778235466,1.3791093778235466 0 1,1 0,-2.758218755647093a1.3791093778235466,1.3791093778235466 0 1,1 0,2.758218755647093z"/><path class="stars10" d="M232.48378814441713,174.26826182011138m0,0.9966435579218538a0.9966435579218538,0.9966435579218538 0 1,1 0,-1.9932871158437075a0.9966435579218538,0.9966435579218538 0 1,1 0,1.9932871158437075z"/><path class="stars0" d="M236.2833721646727,106.45926842839727m0,1.2364420150179478a1.2364420150179478,1.2364420150179478 0 1,1 0,-2.4728840300358956a1.2364420150179478,1.2364420150179478 0 1,1 0,2.4728840300358956z"/><path class="stars-1" d="M238.43867888414263,142.3885427257m0,1.0931220984602608a1.0931220984602608,1.0931220984602608 0 1,1 0,-2.1862441969205215a1.0931220984602608,1.0931220984602608 0 1,1 0,2.1862441969205215z"/><path class="stars12" d="M227.72111432687433,184.81256181135433m0,1.1273141131693556a1.1273141131693556,1.1273141131693556 0 1,1 0,-2.254628226338711a1.1273141131693556,1.1273141131693556 0 1,1 0,2.254628226338711z"/><path class="stars4" d="M231.4854882287952,172.63786346946935m0,1.275116965990018a1.275116965990018,1.275116965990018 0 1,1 0,-2.550233931980036a1.275116965990018,1.275116965990018 0 1,1 0,2.550233931980036z"/><path class="stars10" d="M175.78442096613688,23.675418403460284m0,1.2090536092174755a1.2090536092174755,1.2090536092174755 0 1,1 0,-2.418107218434951a1.2090536092174755,1.2090536092174755 0 1,1 0,2.418107218434951z"/><path class="stars10" d="M197.43902161308506,41.31891255835876m0,0.9855434268403132a0.9855434268403132,0.9855434268403132 0 1,1 0,-1.9710868536806263a0.9855434268403132,0.9855434268403132 0 1,1 0,1.9710868536806263z"/><path class="stars2" d="M229.702431271257,166.19080501676967m0,0.9529793084618501a0.9529793084618501,0.9529793084618501 0 1,1 0,-1.9059586169237002a0.9529793084618501,0.9529793084618501 0 1,1 0,1.9059586169237002z"/><path class="stars-1" d="M207.70269100706514,211.2448157472048m0,0.9423654885481597a0.9423654885481597,0.9423654885481597 0 1,1 0,-1.8847309770963194a0.9423654885481597,0.9423654885481597 0 1,1 0,1.8847309770963194z"/><path class="stars-1" d="M211.65714545702602,205.1544608019475m0,0.9423654885481597a0.9423654885481597,0.9423654885481597 0 1,1 0,-1.8847309770963194a0.9423654885481597,0.9423654885481597 0 1,1 0,1.8847309770963194z"/><path class="stars3" d="M232.61030387073066,127.18459621188063m0,1.1147586370146285a1.1147586370146285,1.1147586370146285 0 1,1 0,-2.229517274029257a1.1147586370146285,1.1147586370146285 0 1,1 0,2.229517274029257z"/><path class="stars1" d="M197.45405233708775,44.74366656346635m0,0.9966435579218538a0.9966435579218538,0.9966435579218538 0 1,1 0,-1.9932871158437075a0.9966435579218538,0.9966435579218538 0 1,1 0,1.9932871158437075z"/><path class="stars11" d="M221.0727210735407,82.38616680704442m0,1.2158433028274782a1.2158433028274782,1.2158433028274782 0 1,1 0,-2.4316866056549564a1.2158433028274782,1.2158433028274782 0 1,1 0,2.4316866056549564z"/><path class="stars0" d="M202.1442481041217,55.66157106554509m0,1.2822776522077217a1.2822776522077217,1.2822776522077217 0 1,1 0,-2.5645553044154434a1.2822776522077217,1.2822776522077217 0 1,1 0,2.5645553044154434z"/><path class="stars15" d="M224.67746954468885,113.81296105602263m0,1.3335411361679999a1.3335411361679999,1.3335411361679999 0 1,1 0,-2.6670822723359997a1.3335411361679999,1.3335411361679999 0 1,1 0,2.6670822723359997z"/><path class="stars13" d="M221.57049927058918,99.75379136452328m0,1.0192202890069684a1.0192202890069684,1.0192202890069684 0 1,1 0,-2.0384405780139367a1.0192202890069684,1.0192202890069684 0 1,1 0,2.0384405780139367z"/><path class="stars9" d="M168.0897154336366,23.45522812733755m0,0.9745669236185506a0.9745669236185506,0.9745669236185506 0 1,1 0,-1.9491338472371011a0.9745669236185506,0.9745669236185506 0 1,1 0,1.9491338472371011z"/><path class="stars2" d="M223.6151086314522,117.0484320649015m0,2.3085922251917954a2.3085922251917954,2.3085922251917954 0 1,1 0,-4.617184450383591a2.3085922251917954,2.3085922251917954 0 1,1 0,4.617184450383591z"/><path class="stars6" d="M223.96643050009277,131.19130057249916m0,0.9664148481114323a0.9664148481114323,0.9664148481114323 0 1,1 0,-1.9328296962228646a0.9664148481114323,0.9664148481114323 0 1,1 0,1.9328296962228646z"/><path class="stars9" d="M222.56616176854953,121.53207239280712m0,1.0106946961995278a1.0106946961995278,1.0106946961995278 0 1,1 0,-2.0213893923990556a1.0106946961995278,1.0106946961995278 0 1,1 0,2.0213893923990556z"/><path class="stars10" d="M208.7066363812012,72.23268872051887m0,0.9610180501000648a0.9610180501000648,0.9610180501000648 0 1,1 0,-1.9220361002001296a0.9610180501000648,0.9610180501000648 0 1,1 0,1.9220361002001296z"/><path class="stars16" d="M217.60791406005472,98.56452832160866m0,1.0689083696654986a1.0689083696654986,1.0689083696654986 0 1,1 0,-2.1378167393309973a1.0689083696654986,1.0689083696654986 0 1,1 0,2.1378167393309973z"/><path class="stars0" d="M162.74321979469593,244.5261173326388m0,0.9397305558075506a0.9397305558075506,0.9397305558075506 0 1,1 0,-1.8794611116151012a0.9397305558075506,0.9397305558075506 0 1,1 0,1.8794611116151012z"/><path class="stars8" d="M171.84942336211276,236.7339104293757m0,1.0570033882675525a1.0570033882675525,1.0570033882675525 0 1,1 0,-2.114006776535105a1.0570033882675525,1.0570033882675525 0 1,1 0,2.114006776535105z"/><path class="stars-1" d="M217.6671298648248,134.44312616582332m0,1.1528508934747923a1.1528508934747923,1.1528508934747923 0 1,1 0,-2.3057017869495846a1.1528508934747923,1.1528508934747923 0 1,1 0,2.3057017869495846z"/><path class="stars13" d="M194.02060127986323,55.43696320100062m0,0.9855434268403132a0.9855434268403132,0.9855434268403132 0 1,1 0,-1.9710868536806263a0.9855434268403132,0.9855434268403132 0 1,1 0,1.9710868536806263z"/><path class="stars15" d="M192.64482034295793,54.14115468766903m0,0.9423654885481597a0.9423654885481597,0.9423654885481597 0 1,1 0,-1.8847309770963194a0.9423654885481597,0.9423654885481597 0 1,1 0,1.8847309770963194z"/><path class="stars9" d="M213.7641469511354,154.7848458483988m0,1.0481617466895239a1.0481617466895239,1.0481617466895239 0 1,1 0,-2.0963234933790478a1.0481617466895239,1.0481617466895239 0 1,1 0,2.0963234933790478z"/><path class="stars8" d="M212.15925448080938,158.54764852365045m0,1.2158433028274782a1.2158433028274782,1.2158433028274782 0 1,1 0,-2.4316866056549564a1.2158433028274782,1.2158433028274782 0 1,1 0,2.4316866056549564z"/><path class="stars7" d="M197.67715900548006,65.77884345162727m0,1.5296484112586586a1.5296484112586586,1.5296484112586586 0 1,1 0,-3.059296822517317a1.5296484112586586,1.5296484112586586 0 1,1 0,3.059296822517317z"/><path class="stars-1" d="M181.01569617998197,223.7733002793438m0,1.6590379935686383a1.6590379935686383,1.6590379935686383 0 1,1 0,-3.3180759871372767a1.6590379935686383,1.6590379935686383 0 1,1 0,3.3180759871372767z"/><path class="stars4" d="M206.67753509400362,108.20887695835583m0,1.030699721065294a1.030699721065294,1.030699721065294 0 1,1 0,-2.061399442130588a1.030699721065294,1.030699721065294 0 1,1 0,2.061399442130588z"/><path class="stars10" d="M187.8746247730902,209.79337858691417m0,1.1955877583219885a1.1955877583219885,1.1955877583219885 0 1,1 0,-2.391175516643977a1.1955877583219885,1.1955877583219885 0 1,1 0,2.391175516643977z"/><path class="stars-1" d="M205.60213303332046,106.05146249451057m0,0.9938568591585841a0.9938568591585841,0.9938568591585841 0 1,1 0,-1.9877137183171683a0.9938568591585841,0.9938568591585841 0 1,1 0,1.9877137183171683z"/><path class="stars1" d="M188.6413923720877,59.38734552996401m0,2.0126211201681796a2.0126211201681796,2.0126211201681796 0 1,1 0,-4.025242240336359a2.0126211201681796,2.0126211201681796 0 1,1 0,4.025242240336359z"/><path class="stars2" d="M166.79908871010701,234.64350119750586m0,1.0961871293767458a1.0961871293767458,1.0961871293767458 0 1,1 0,-2.1923742587534916a1.0961871293767458,1.0961871293767458 0 1,1 0,2.1923742587534916z"/><path class="stars9" d="M171.77665568719988,36.78137173374054m0,1.09926075440594a1.09926075440594,1.09926075440594 0 1,1 0,-2.19852150881188a1.09926075440594,1.09926075440594 0 1,1 0,2.19852150881188z"/><path class="stars10" d="M195.39967015882115,76.90433319241438m0,1.4262347252865257a1.4262347252865257,1.4262347252865257 0 1,1 0,-2.8524694505730515a1.4262347252865257,1.4262347252865257 0 1,1 0,2.8524694505730515z"/><path class="stars0" d="M204.313711919612,149.00984655006053m0,0.9910779522381808a0.9910779522381808,0.9910779522381808 0 1,1 0,-1.9821559044763617a0.9910779522381808,0.9910779522381808 0 1,1 0,1.9821559044763617z"/><path class="stars13" d="M173.60995513307316,224.29144083851122m0,1.02207810489132a1.02207810489132,1.02207810489132 0 1,1 0,-2.04415620978264a1.02207810489132,1.02207810489132 0 1,1 0,2.04415620978264z"/><path class="stars0" d="M187.61904604067402,66.38949623403705m0,0.9476575391959581a0.9476575391959581,0.9476575391959581 0 1,1 0,-1.8953150783919162a0.9476575391959581,0.9476575391959581 0 1,1 0,1.8953150783919162z"/><path class="stars16" d="M183.59967178864574,62.66860699774715m0,1.00786870927817a1.00786870927817,1.00786870927817 0 1,1 0,-2.01573741855634a1.00786870927817,1.00786870927817 0 1,1 0,2.01573741855634z"/><path class="stars10" d="M189.19012226645498,83.93125386035753m0,1.162575627682282a1.162575627682282,1.162575627682282 0 1,1 0,-2.325151255364564a1.162575627682282,1.162575627682282 0 1,1 0,2.325151255364564z"/><path class="stars4" d="M184.5915678039071,71.94192188508438m0,1.002240418429182a1.002240418429182,1.002240418429182 0 1,1 0,-2.004480836858364a1.002240418429182,1.002240418429182 0 1,1 0,2.004480836858364z"/><path class="stars5" d="M194.8577113603301,124.36066501048742m0,0.9529793084618501a0.9529793084618501,0.9529793084618501 0 1,1 0,-1.9059586169237002a0.9529793084618501,0.9529793084618501 0 1,1 0,1.9059586169237002z"/><path class="stars3" d="M165.1555543151319,37.535485941553745m0,1.4382655557255766a1.4382655557255766,1.4382655557255766 0 1,1 0,-2.876531111451153a1.4382655557255766,1.4382655557255766 0 1,1 0,2.876531111451153z"/><path class="stars10" d="M187.65874675280654,169.28093834400525m0,0.9938568591585841a0.9938568591585841,0.9938568591585841 0 1,1 0,-1.9877137183171683a0.9938568591585841,0.9938568591585841 0 1,1 0,1.9877137183171683z"/><path class="stars-2" d="M155.79954710474982,28.1144280931544m0,1.1560833993728752a1.1560833993728752,1.1560833993728752 0 1,1 0,-2.3121667987457504a1.1560833993728752,1.1560833993728752 0 1,1 0,2.3121667987457504z"/><path class="stars8" d="M189.13652809949923,142.06039699212454m0,1.2679962675448688a1.2679962675448688,1.2679962675448688 0 1,1 0,-2.5359925350897377a1.2679962675448688,1.2679962675448688 0 1,1 0,2.5359925350897377z"/><path class="stars9" d="M174.71970517955538,61.56687978601785m0,0.9371029905593127a0.9371029905593127,0.9371029905593127 0 1,1 0,-1.8742059811186254a0.9371029905593127,0.9371029905593127 0 1,1 0,1.8742059811186254z"/><path class="stars3" d="M184.4722856923008,159.82495877585333m0,1.0163704638149036a1.0163704638149036,1.0163704638149036 0 1,1 0,-2.032740927629807a1.0163704638149036,1.0163704638149036 0 1,1 0,2.032740927629807z"/><path class="stars10" d="M147.3712866219264,245.30614164095965m0,1.0050506240526558a1.0050506240526558,1.0050506240526558 0 1,1 0,-2.0101012481053115a1.0050506240526558,1.0050506240526558 0 1,1 0,2.0101012481053115z"/><path class="stars15" d="M184.1132461927215,117.09834659558754m0,1.4667336364566397a1.4667336364566397,1.4667336364566397 0 1,1 0,-2.9334672729132794a1.4667336364566397,1.4667336364566397 0 1,1 0,2.9334672729132794z"/><path class="stars2" d="M182.10389023326718,158.8533201184232m0,1.2858730608570121a1.2858730608570121,1.2858730608570121 0 1,1 0,-2.5717461217140243a1.2858730608570121,1.2858730608570121 0 1,1 0,2.5717461217140243z"/><path class="stars-1" d="M173.18975981591655,191.5672394357219m0,1.2329848197080322a1.2329848197080322,1.2329848197080322 0 1,1 0,-2.4659696394160644a1.2329848197080322,1.2329848197080322 0 1,1 0,2.4659696394160644z"/><path class="stars10" d="M176.68528065693468,133.5091928813902m0,1.2503680055604705a1.2503680055604705,1.2503680055604705 0 1,1 0,-2.500736011120941a1.2503680055604705,1.2503680055604705 0 1,1 0,2.500736011120941z"/><path class="stars4" d="M172.98476110433813,93.07657213385173m0,0.9938568591585841a0.9938568591585841,0.9938568591585841 0 1,1 0,-1.9877137183171683a0.9938568591585841,0.9938568591585841 0 1,1 0,1.9877137183171683z"/><path class="stars-1" d="M164.66567709007788,205.15649257447612m0,1.7595144889344199a1.7595144889344199,1.7595144889344199 0 1,1 0,-3.5190289778688397a1.7595144889344199,1.7595144889344199 0 1,1 0,3.5190289778688397z"/><path class="stars1" d="M174.84582674806344,123.16395772106638m0,1.065919612443201a1.065919612443201,1.065919612443201 0 1,1 0,-2.131839224886402a1.065919612443201,1.065919612443201 0 1,1 0,2.131839224886402z"/><path class="stars16" d="M158.01167306889678,45.33140817777384m0,1.1054338832589665a1.1054338832589665,1.1054338832589665 0 1,1 0,-2.210867766517933a1.1054338832589665,1.1054338832589665 0 1,1 0,2.210867766517933z"/><path class="stars14" d="M155.17355429221044,223.18331636929753m0,1.278692296621792a1.278692296621792,1.278692296621792 0 1,1 0,-2.557384593243584a1.278692296621792,1.278692296621792 0 1,1 0,2.557384593243584z"/><path class="stars-1" d="M170.72043901558283,135.19015969030315m0,0.9691246015706154a0.9691246015706154,0.9691246015706154 0 1,1 0,-1.9382492031412308a0.9691246015706154,0.9691246015706154 0 1,1 0,1.9382492031412308z"/><path class="stars4" d="M168.02057802263332,133.03147180372213m0,1.0278177984208692a1.0278177984208692,1.0278177984208692 0 1,1 0,-2.0556355968417384a1.0278177984208692,1.0278177984208692 0 1,1 0,2.0556355968417384z"/><path class="stars10" d="M160.15649977335315,199.58692698249973m0,0.9397305558075506a0.9397305558075506,0.9397305558075506 0 1,1 0,-1.8794611116151012a0.9397305558075506,0.9397305558075506 0 1,1 0,1.8794611116151012z"/><path class="stars0" d="M156.99017166375538,56.79409250379585m0,0.9966435579218538a0.9966435579218538,0.9966435579218538 0 1,1 0,-1.9932871158437075a0.9966435579218538,0.9966435579218538 0 1,1 0,1.9932871158437075z"/><path class="stars-1" d="M162.82507620301743,116.07105746322557m0,1.09926075440594a1.09926075440594,1.09926075440594 0 1,1 0,-2.19852150881188a1.09926075440594,1.09926075440594 0 1,1 0,2.19852150881188z"/><path class="stars16" d="M155.14502191431671,204.14070444747296m0,1.5997348750698193a1.5997348750698193,1.5997348750698193 0 1,1 0,-3.1994697501396385a1.5997348750698193,1.5997348750698193 0 1,1 0,3.1994697501396385z"/><path class="stars9" d="M159.5179556527451,86.3113580305725m0,1.257389708810668a1.257389708810668,1.257389708810668 0 1,1 0,-2.514779417621336a1.257389708810668,1.257389708810668 0 1,1 0,2.514779417621336z"/><path class="stars11" d="M159.4940496777638,96.456109970475m0,0.9397305558075506a0.9397305558075506,0.9397305558075506 0 1,1 0,-1.8794611116151012a0.9397305558075506,0.9397305558075506 0 1,1 0,1.8794611116151012z"/><path class="stars1" d="M152.0668589663197,210.25975123920523m0,1.074911048348947a1.074911048348947,1.074911048348947 0 1,1 0,-2.149822096697894a1.074911048348947,1.074911048348947 0 1,1 0,2.149822096697894z"/><path class="stars11" d="M146.04013021046634,35.81298035191955m0,1.0719055071348897a1.0719055071348897,1.0719055071348897 0 1,1 0,-2.1438110142697795a1.0719055071348897,1.0719055071348897 0 1,1 0,2.1438110142697795z"/><path class="stars9" d="M158.10216097872035,94.9192700006333m0,1.0689083696654986a1.0689083696654986,1.0689083696654986 0 1,1 0,-2.1378167393309973a1.0689083696654986,1.0689083696654986 0 1,1 0,2.1378167393309973z"/><path class="stars16" d="M158.81571440561837,144.81035072951323m0,1.0050506240526558a1.0050506240526558,1.0050506240526558 0 1,1 0,-2.0101012481053115a1.0050506240526558,1.0050506240526558 0 1,1 0,2.0101012481053115z"/><path class="stars1" d="M157.4858637465888,157.57165115365652m0,1.1432075049046568a1.1432075049046568,1.1432075049046568 0 1,1 0,-2.2864150098093137a1.1432075049046568,1.1432075049046568 0 1,1 0,2.2864150098093137z"/><path class="stars1" d="M154.6333213356011,178.57846259091298m0,2.058212550971189a2.058212550971189,2.058212550971189 0 1,1 0,-4.116425101942378a2.058212550971189,2.058212550971189 0 1,1 0,4.116425101942378z"/><path class="stars-1" d="M150.7814643083182,68.74617848762792m0,1.0364878310850623a1.0364878310850623,1.0364878310850623 0 1,1 0,-2.0729756621701245a1.0364878310850623,1.0364878310850623 0 1,1 0,2.0729756621701245z"/><path class="stars17" d="M152.75435912417163,89.80855645175262m0,1.4422983425484068a1.4422983425484068,1.4422983425484068 0 1,1 0,-2.8845966850968137a1.4422983425484068,1.4422983425484068 0 1,1 0,2.8845966850968137z"/><path class="stars0" d="M153.77997739103674,109.44579469751974m0,1.4222468536813797a1.4222468536813797,1.4222468536813797 0 1,1 0,-2.8444937073627594a1.4222468536813797,1.4222468536813797 0 1,1 0,2.8444937073627594z"/><path class="stars12" d="M151.54654612788815,165.66585379701422m0,1.0192202890069684a1.0192202890069684,1.0192202890069684 0 1,1 0,-2.0384405780139367a1.0192202890069684,1.0192202890069684 0 1,1 0,2.0384405780139367z"/><path class="stars10" d="M147.6520848050445,201.32713570572466m0,0.9637126713496089a0.9637126713496089,0.9637126713496089 0 1,1 0,-1.9274253426992178a0.9637126713496089,0.9637126713496089 0 1,1 0,1.9274253426992178z"/><path class="stars9" d="M149.56808834790309,127.91535772953222m0,1.0135286069724805a1.0135286069724805,1.0135286069724805 0 1,1 0,-2.027057213944961a1.0135286069724805,1.0135286069724805 0 1,1 0,2.027057213944961z"/><path class="stars4" d="M142.95877224105135,219.2715348542951m0,0.9344827722033209a0.9344827722033209,0.9344827722033209 0 1,1 0,-1.8689655444066418a0.9344827722033209,0.9344827722033209 0 1,1 0,1.8689655444066418z"/><path class="stars11" d="M146.69689321307808,163.94550769234206m0,0.9423654885481597a0.9423654885481597,0.9423654885481597 0 1,1 0,-1.8847309770963194a0.9423654885481597,0.9423654885481597 0 1,1 0,1.8847309770963194z"/><path class="stars10" d="M139.5759286883045,63.21411784458637m0,0.9827877649721412a0.9827877649721412,0.9827877649721412 0 1,1 0,-1.9655755299442823a0.9827877649721412,0.9827877649721412 0 1,1 0,1.9655755299442823z"/><path class="stars10" d="M135.28092300230628,22.15979205981408m0,1.162575627682282a1.162575627682282,1.162575627682282 0 1,1 0,-2.325151255364564a1.162575627682282,1.162575627682282 0 1,1 0,2.325151255364564z"/></g><g id="dsos" inkscape:groupmode="layer" inkscape:label="dsos"/><g id="planets" inkscape:groupmode="layer" inkscape:label="planets"/><g id="gridvaluesLon" inkscape:groupmode="layer" inkscape:label="gridvaluesLon"/><g id="gridvaluesLat" inkscape:groupmode="layer" inkscape:label="gridvaluesLat"/><g id="constNames" inkscape:groupmode="layer" inkscape:label="constNames"/><g id="starDesignations" inkscape:groupmode="layer" inkscape:label="starDesignations"/><g id="starNames" inkscape:groupmode="layer" inkscape:label="starNames"/><g id="dsoNames" inkscape:groupmode="layer" inkscape:label="dsoNames"/><g id="planetNames" inkscape:groupmode="layer" inkscape:label="planetNames"/><g id="horizon" inkscape:groupmode="layer" inkscape:label="horizon"/><g id="daylight" inkscape:groupmode="layer" inkscape:label="daylight"/></svg>